<svg width="2036" height="581" viewBox="0 0 2036 581" fill="none" xmlns="http://www.w3.org/2000/svg">
<path d="M771.309 573.773C767.583 570.033 765.72 564.735 765.72 558.502V517.362C765.72 511.129 767.583 505.83 771.309 502.09C775.036 498.35 780.004 496.48 786.214 496.48C792.424 496.48 797.703 498.35 801.429 502.09C805.155 505.83 807.018 510.817 807.018 517.362V519.232C807.018 519.855 806.708 520.479 805.776 520.479H797.082C796.461 520.79 795.84 520.479 795.84 519.855V516.739C795.84 513.622 794.908 511.129 793.045 508.947C791.182 507.077 789.009 506.142 785.903 506.142C782.798 506.142 780.625 507.077 778.762 508.947C776.899 510.817 775.967 513.31 775.967 516.739V559.437C775.967 562.553 776.899 565.047 778.762 567.228C780.625 569.098 782.798 570.033 785.903 570.033C789.009 570.033 791.182 569.098 793.045 567.228C794.908 565.358 795.84 562.865 795.84 559.437V556.32C795.84 555.697 796.15 555.073 797.082 555.073H805.776C806.397 555.385 807.018 556.008 807.018 556.632V558.502C807.018 564.735 805.155 570.033 801.429 573.773C797.703 577.513 792.424 579.383 786.214 579.383C780.004 579.383 775.036 577.513 771.309 573.773Z" fill="white"/>
<path d="M857.322 573.773C853.595 570.033 851.422 564.735 851.422 558.502V517.985C851.422 511.44 853.285 506.454 857.322 502.402C861.358 498.35 866.326 496.48 872.537 496.48C878.747 496.48 884.025 498.35 888.062 502.402C891.788 506.454 893.962 511.44 893.962 517.985V558.502C893.962 565.047 892.099 570.033 888.062 573.773C884.336 577.513 879.057 579.695 872.537 579.695C866.016 579.695 861.048 577.825 857.322 573.773ZM879.989 566.917C881.852 564.735 882.783 562.242 882.783 558.813V517.362C882.783 513.934 881.852 511.44 879.989 509.259C878.126 507.077 875.642 506.142 872.537 506.142C869.431 506.142 867.258 507.077 865.395 509.259C863.532 511.44 862.6 513.934 862.6 517.362V558.813C862.6 562.242 863.532 564.735 865.395 566.917C867.258 569.098 869.742 570.033 872.537 570.033C875.331 570.033 878.126 569.098 879.989 566.917Z" fill="white"/>
<path d="M975.004 507.389H949.232C949.232 507.389 948.922 507.389 948.922 507.701V532.946C948.922 532.946 948.922 533.257 949.232 533.257H965.068C965.689 533.257 966.31 533.569 966.31 534.504V541.672C966.31 542.296 966 542.919 965.068 542.919H949.232C949.232 542.919 948.922 542.919 948.922 543.231V577.514C948.922 578.137 948.611 578.761 947.68 578.761H938.985C938.364 578.761 937.743 578.449 937.743 577.514V498.663C937.743 498.039 938.054 497.416 938.985 497.416H975.315C975.936 497.416 976.557 497.728 976.557 498.663V505.831C976.557 506.454 976.246 507.078 975.315 507.078H975.004V507.389Z" fill="white"/>
<path d="M1057.29 507.389H1031.52C1031.52 507.389 1031.21 507.389 1031.21 507.701V532.946C1031.21 532.946 1031.21 533.257 1031.52 533.257H1047.35C1047.97 533.257 1048.6 533.569 1048.6 534.504V541.672C1048.6 542.296 1048.28 542.919 1047.35 542.919H1031.52C1031.52 542.919 1031.21 542.919 1031.21 543.231V577.514C1031.21 578.137 1030.9 578.761 1029.96 578.761H1021.27C1020.65 578.761 1020.03 578.449 1020.03 577.514V498.663C1020.03 498.039 1020.34 497.416 1021.27 497.416H1057.6C1058.22 497.416 1058.84 497.728 1058.84 498.663V505.831C1058.84 506.454 1058.53 507.078 1057.6 507.078H1057.29V507.389Z" fill="white"/>
<path d="M1138.95 507.388H1112.87C1112.87 507.388 1112.56 507.388 1112.56 507.7V532.945C1112.56 532.945 1112.56 533.257 1112.87 533.257H1128.71C1129.33 533.257 1129.95 533.568 1129.95 534.503V541.672C1129.95 542.295 1129.64 542.918 1128.71 542.918H1112.87C1112.87 542.918 1112.56 542.918 1112.56 543.23V568.475C1112.56 568.475 1112.56 568.786 1112.87 568.786H1138.95C1139.58 568.786 1140.2 569.098 1140.2 570.033V577.201C1140.2 577.825 1139.89 578.448 1138.95 578.448H1102.62C1102 578.448 1101.38 578.136 1101.38 577.201V498.35C1101.38 497.727 1101.69 497.104 1102.62 497.104H1138.95C1139.58 497.104 1140.2 497.415 1140.2 498.35V505.519C1140.2 506.142 1139.89 506.765 1138.95 506.765V507.388Z" fill="white"/>
<path d="M1220.62 507.388H1194.54C1194.54 507.388 1194.22 507.388 1194.22 507.7V532.945C1194.22 532.945 1194.22 533.257 1194.54 533.257H1210.37C1210.99 533.257 1211.61 533.568 1211.61 534.503V541.672C1211.61 542.295 1211.3 542.918 1210.37 542.918H1194.54C1194.54 542.918 1194.22 542.918 1194.22 543.23V568.475C1194.22 568.475 1194.22 568.786 1194.54 568.786H1220.62C1221.24 568.786 1221.86 569.098 1221.86 570.033V577.201C1221.86 577.825 1221.55 578.448 1220.62 578.448H1184.29C1183.67 578.448 1183.05 578.136 1183.05 577.201V498.35C1183.05 497.727 1183.36 497.104 1184.29 497.104H1220.62C1221.24 497.104 1221.86 497.415 1221.86 498.35V505.519C1221.86 506.142 1221.55 506.765 1220.62 506.765V507.388Z" fill="white"/>
<path d="M1375.25 578.137C1375.25 578.448 1365.32 578.448 1365.32 578.448C1364.7 578.448 1364.39 578.448 1363.76 577.825L1359.73 572.215H1359.11C1356.31 574.708 1353.21 576.578 1350.1 577.825C1347 579.072 1343.58 579.695 1339.85 579.695C1333.64 579.695 1328.68 578.137 1324.95 574.708C1321.22 571.28 1319.36 566.605 1319.36 560.06C1319.36 553.515 1320.6 550.398 1323.09 546.659C1325.57 542.919 1328.68 539.49 1333.02 536.062V535.439C1330.23 531.699 1328.37 528.582 1327.12 526.4C1325.88 524.219 1324.95 522.349 1324.64 520.79C1324.33 519.232 1324.02 517.362 1324.02 515.492C1324.02 509.882 1325.57 505.207 1328.99 501.779C1332.4 498.35 1336.75 496.48 1342.34 496.48C1347.93 496.48 1352.28 498.35 1356 501.779C1359.42 505.207 1361.28 509.882 1361.28 515.492C1361.28 521.102 1360.04 524.219 1357.55 527.647C1355.07 531.075 1351.65 534.504 1347.62 537.932V538.555L1353.21 546.347L1360.04 555.385H1360.66C1360.66 555.073 1361.28 554.138 1361.9 553.203C1363.76 550.087 1365.01 547.594 1365.94 546.035C1365.94 546.035 1366.25 545.412 1366.56 545.412H1367.49L1374.01 549.152C1374.63 549.464 1374.63 550.087 1374.32 550.71C1372.15 555.073 1369.35 559.437 1366.25 563.488V564.112L1375.25 576.578V578.137ZM1352.9 564.423V563.8L1339.23 545.1H1338.61C1335.82 547.594 1333.96 549.775 1332.4 551.957C1330.85 554.138 1330.23 556.632 1330.23 559.437C1330.23 562.242 1331.16 565.047 1333.02 567.228C1334.89 569.098 1337.37 570.033 1340.79 570.033C1344.2 570.033 1348.86 568.163 1352.9 564.112C1352.9 564.319 1352.9 564.423 1352.9 564.423ZM1336.75 509.259C1335.2 510.817 1334.58 512.999 1334.58 515.804C1334.58 518.609 1334.89 519.544 1335.51 521.102C1336.13 522.66 1337.68 525.465 1340.17 529.205C1340.17 529.205 1340.48 529.517 1340.79 529.205C1343.58 526.712 1345.75 524.53 1347.31 522.349C1348.86 520.167 1349.48 517.985 1349.48 515.18C1349.48 512.375 1348.86 510.505 1347.31 508.635C1346.07 507.077 1344.2 506.142 1342.03 506.142C1339.85 506.142 1337.99 507.077 1336.44 508.635V509.259H1336.75Z" fill="white"/>
<path d="M1499.77 497.729H1508.46C1509.08 497.729 1509.7 498.04 1509.7 498.975V577.826C1509.7 578.45 1509.39 579.073 1508.46 579.073H1499.77C1499.15 579.073 1498.53 578.761 1498.53 577.826V520.168H1498.21L1487.04 540.738C1487.04 541.362 1486.42 541.673 1486.1 541.673C1485.79 541.673 1485.17 541.673 1485.17 540.738L1474.31 520.168H1474C1473.68 520.168 1474 520.168 1474 520.48V577.826C1474 578.45 1473.68 579.073 1472.75 579.073H1464.06C1463.44 579.073 1462.82 578.761 1462.82 577.826V498.975C1462.82 498.352 1463.13 497.729 1464.06 497.729H1472.75C1473.37 497.729 1473.68 497.728 1474 498.663L1486.1 520.48H1486.73L1498.84 498.663C1498.84 498.04 1499.46 497.729 1500.08 497.729H1499.77Z" fill="white"/>
<path d="M1559.08 573.773C1555.35 570.033 1553.18 564.735 1553.18 558.502V517.985C1553.18 511.44 1555.04 506.454 1559.08 502.402C1562.8 498.662 1568.08 496.48 1574.29 496.48C1580.5 496.48 1585.78 498.35 1589.82 502.402C1593.54 506.454 1595.72 511.44 1595.72 517.985V558.502C1595.72 565.047 1593.85 570.033 1589.82 573.773C1586.09 577.513 1580.81 579.695 1574.29 579.695C1567.77 579.695 1562.8 577.825 1559.08 573.773ZM1581.74 566.917C1583.61 564.735 1584.54 562.242 1584.54 558.813V517.362C1584.54 513.934 1583.61 511.44 1581.74 509.259C1579.88 507.077 1577.4 506.142 1574.29 506.142C1571.19 506.142 1569.01 507.077 1567.15 509.259C1565.29 511.44 1564.35 513.934 1564.35 517.362V558.813C1564.35 562.242 1565.29 564.735 1567.15 566.917C1569.01 569.098 1571.5 570.033 1574.29 570.033C1577.09 570.033 1579.88 569.098 1581.74 566.917Z" fill="white"/>
<path d="M1669.93 578.138L1659.37 543.543C1659.37 543.232 1651.3 543.232 1651.3 543.232V577.826C1651.3 578.45 1651.3 579.073 1650.05 579.073H1641.36C1640.74 579.073 1640.12 578.761 1640.12 577.826V498.975C1640.12 498.352 1640.12 497.729 1641.36 497.729H1661.85C1665.89 497.729 1669.31 498.663 1672.1 500.533C1675.21 502.403 1677.38 505.208 1678.93 508.637C1680.48 512.065 1681.42 516.117 1681.42 520.48C1681.42 524.843 1680.48 529.518 1678.31 533.258C1676.45 536.998 1673.65 539.492 1670.24 541.05V541.673L1682.04 577.203C1682.04 578.138 1682.04 578.45 1681.11 578.45H1672.1C1671.48 578.45 1670.86 578.45 1670.86 577.515V578.138H1669.93ZM1650.36 508.013V533.882C1650.36 534.193 1658.75 534.193 1658.75 534.193C1661.85 534.193 1664.34 532.947 1666.51 530.453C1668.37 527.96 1669.31 524.843 1669.31 520.792C1669.31 516.74 1668.37 513.312 1666.51 510.818C1664.65 508.325 1662.16 507.078 1658.75 507.078H1650.36V508.013Z" fill="white"/>
<path d="M1762.46 507.701H1736.38V533.257C1736.38 533.569 1752.21 533.569 1752.21 533.569C1752.83 533.569 1753.45 533.881 1753.45 534.816V541.984C1753.45 542.607 1753.45 543.231 1752.21 543.231H1736.38V568.787C1736.38 569.099 1762.46 569.099 1762.46 569.099C1763.08 569.099 1763.7 569.411 1763.7 570.346V577.514C1763.7 578.137 1763.7 578.761 1762.46 578.761H1726.13C1725.51 578.761 1724.89 578.449 1724.89 577.514V498.663C1724.89 498.039 1724.89 497.416 1726.13 497.416H1762.46C1763.08 497.416 1763.7 497.728 1763.7 498.663V505.831C1763.7 506.454 1763.7 507.078 1762.46 507.078V507.701Z" fill="white"/>
<path d="M299.954 574.709C296.228 570.969 294.365 565.671 294.365 559.437V518.298C294.365 512.064 296.228 506.766 299.954 503.026C303.681 499.286 308.649 497.416 314.859 497.416C321.069 497.416 326.348 499.286 330.074 503.026C333.8 506.766 335.663 511.753 335.663 518.298V520.168C335.663 520.791 335.663 521.414 334.421 521.414H325.727C325.106 521.726 324.485 521.414 324.485 520.791V517.674C324.485 514.558 323.553 512.064 321.69 509.883C319.827 508.013 317.654 507.078 314.548 507.078C311.443 507.078 309.27 508.013 307.407 509.883C305.544 511.753 304.612 514.246 304.612 517.674V560.372C304.612 563.489 305.544 565.982 307.407 568.164C309.27 570.034 311.443 570.969 314.548 570.969C317.654 570.969 319.827 570.034 321.69 568.164C323.553 566.294 324.485 563.801 324.485 560.372V557.256C324.485 556.632 324.485 556.009 325.727 556.009H334.421C335.042 556.321 335.663 556.944 335.663 557.567V559.437C335.663 565.671 333.8 570.969 330.074 574.709C326.348 578.449 321.069 580.319 314.859 580.319C308.649 580.319 303.681 578.449 299.954 574.709Z" fill="white"/>
<path d="M411.118 577.826L400.56 543.231C400.56 543.231 400.56 542.919 400.25 542.919H392.176C392.176 542.919 391.866 542.919 391.866 543.231V577.514C391.866 578.137 391.555 578.761 390.624 578.761H381.93C381.309 578.761 380.688 578.449 380.688 577.514V498.663C380.688 498.039 380.688 497.416 381.93 497.416H402.423C406.46 497.416 409.875 498.351 412.67 500.221C415.775 502.091 417.949 504.896 419.501 508.324C421.054 511.753 421.985 515.804 421.985 520.168C421.985 524.531 421.054 529.206 418.88 532.946C417.017 536.686 414.223 539.179 410.807 540.737V541.361L422.606 576.891C422.606 577.826 422.296 578.137 421.675 578.137H412.67C412.049 578.137 411.428 578.137 411.428 577.202V577.826H411.118ZM391.555 507.701V533.569C391.555 533.569 391.555 533.881 391.866 533.881H400.25C403.355 533.881 405.839 532.634 408.012 530.141C409.875 527.647 410.807 524.531 410.807 520.479C410.807 516.428 409.875 512.999 408.012 510.506C406.149 508.013 403.665 506.766 400.25 506.766H391.866C391.866 506.766 391.555 506.766 391.555 507.078V507.701Z" fill="white"/>
<path d="M494.645 577.826L492.161 564.425C492.161 564.113 472.598 564.113 472.598 564.113C472.598 564.425 470.114 577.826 470.114 577.826C470.114 578.45 469.493 578.761 468.872 578.761H460.178C459.867 578.761 459.557 578.761 459.246 578.45C458.936 578.138 459.246 577.826 459.246 577.515L476.324 498.663C476.324 498.04 476.946 497.729 477.567 497.729H487.813C488.434 497.729 489.055 498.04 489.055 498.663L506.444 577.515C506.444 578.45 506.134 578.761 505.513 578.761H496.508C495.887 578.761 495.266 578.45 495.266 577.826H494.645ZM474.461 555.075H489.676C489.676 555.075 489.987 555.075 489.987 554.763L482.224 513.623L474.461 554.763C474.461 554.763 474.461 555.075 474.772 555.075H474.461Z" fill="white"/>
<path d="M579.725 507.077H553.953C553.953 507.077 553.642 507.077 553.642 507.388V532.633C553.642 532.633 553.642 532.945 553.953 532.945H569.789C570.41 532.945 571.031 533.257 571.031 534.192V541.36C571.031 541.983 570.72 542.607 569.789 542.607H553.953C553.953 542.607 553.642 542.607 553.642 542.918V577.201C553.642 577.825 553.331 578.448 552.4 578.448H543.706C543.085 578.448 542.464 578.136 542.464 577.201V498.35C542.464 497.727 542.774 497.104 543.706 497.104H580.035C580.656 497.104 581.277 497.415 581.277 498.35V505.519C581.277 506.142 580.967 506.765 580.035 506.765H579.725V507.077Z" fill="white"/>
<path d="M663.563 498.663V505.831C663.563 506.454 663.253 507.078 662.321 507.078H647.106C647.106 507.078 646.796 507.078 646.796 507.389V577.202C646.796 577.826 646.485 578.449 645.554 578.449H636.859C636.238 578.449 635.617 578.137 635.617 577.202V507.389C635.617 507.389 635.617 507.078 635.307 507.078H621.023C620.402 507.078 619.781 506.766 619.781 505.831V498.663C619.781 498.039 620.092 497.416 621.023 497.416H662.321C662.942 497.416 663.563 497.728 663.563 498.663Z" fill="white"/>
<path d="M1606.89 148.354C1605.96 150.847 1608.13 152.717 1608.13 153.341C1609.07 158.016 1608.76 160.821 1608.13 164.561C1607.51 168.3 1611.24 180.455 1612.17 184.195C1615.28 196.974 1613.72 212.557 1620.56 224.4V227.205C1619 232.192 1620.56 246.528 1621.8 252.138C1623.04 257.748 1624.9 251.827 1623.04 258.995C1621.18 266.163 1623.97 264.917 1625.83 267.41L1624.59 275.825C1624.59 276.448 1625.83 276.76 1625.83 277.072C1628.01 283.305 1629.56 291.408 1629.87 297.953C1630.18 304.498 1629.87 306.68 1629.87 311.043C1632.35 311.043 1635.15 311.355 1637.63 311.043C1640.12 310.731 1638.88 308.861 1641.05 309.796C1641.67 307.615 1639.19 306.68 1639.81 304.81C1641.67 297.641 1641.98 289.226 1643.84 282.681C1645.71 276.136 1646.33 280.811 1646.64 279.876C1648.5 272.708 1645.71 263.358 1647.88 254.943C1650.05 246.528 1650.36 253.073 1650.67 252.138C1654.09 239.36 1652.85 225.335 1657.51 213.18C1657.51 212.869 1656.26 212.245 1656.26 211.934C1655.33 206.324 1661.85 202.584 1657.51 196.662C1658.13 195.727 1659.99 193.234 1660.3 192.61C1663.1 185.442 1659.68 176.092 1665.89 170.482L1664.65 164.872L1667.44 162.067L1666.2 155.211C1667.75 153.964 1669.31 151.159 1671.17 150.224C1673.03 149.289 1672.1 150.224 1672.41 150.224C1672.72 150.224 1673.34 148.977 1673.65 148.977C1675.21 148.666 1680.17 148.977 1682.04 148.977C1685.45 149.289 1689.49 151.159 1694.46 150.224C1701.91 148.977 1712.16 150.224 1719.3 148.977C1726.44 147.731 1730.48 149.601 1734.51 150.224C1738.55 150.847 1741.34 149.289 1742.28 152.406C1743.21 155.522 1742.28 154.276 1742.28 155.211C1742.28 156.146 1743.52 156.146 1743.52 156.457C1743.52 156.769 1741.34 158.327 1742.28 162.067C1744.45 171.729 1749.42 184.507 1747.86 194.169L1750.66 198.22L1749.42 206.635C1753.76 210.687 1754.39 215.985 1752.21 221.284H1755.01C1755.63 221.907 1754.39 227.205 1755.01 229.075C1755.63 230.945 1759.35 232.192 1757.8 238.737C1756.25 245.282 1759.66 247.152 1760.6 252.762C1761.53 258.372 1759.97 259.93 1760.6 262.423C1761.22 264.917 1763.08 264.293 1763.39 265.228C1764.94 270.838 1763.39 284.863 1764.63 291.72C1765.87 298.576 1768.36 298.888 1768.67 301.381C1768.98 303.875 1768.67 307.615 1768.67 310.42C1770.84 309.796 1771.46 311.666 1772.08 311.666C1780.47 313.536 1777.67 306.056 1778.29 301.381C1779.85 289.85 1783.57 274.578 1782.33 263.67C1787.61 245.593 1793.51 224.088 1791.96 205.077V203.83C1795.68 199.467 1794.13 194.48 1797.55 189.805C1792.89 185.442 1798.48 180.455 1798.79 178.585C1800.03 174.222 1798.79 164.249 1800.03 158.951C1801.27 153.652 1801.27 158.016 1801.27 157.704C1802.2 155.522 1803.76 150.847 1806.24 149.912C1808.72 148.977 1809.97 149.912 1811.83 147.107H1813.07C1816.8 150.536 1822.08 150.536 1827.04 149.912C1832.01 149.289 1827.98 148.666 1828.29 148.666C1836.67 147.731 1843.19 153.029 1850.33 151.471C1857.47 149.912 1853.75 149.289 1854.37 148.666L1859.34 152.094C1859.03 156.146 1859.96 160.821 1859.34 164.561C1858.41 170.17 1855.3 173.287 1856.54 179.832C1857.79 186.377 1851.26 187 1855.3 191.052V192.299C1850.02 195.727 1854.99 201.649 1849.71 204.765C1854.37 209.129 1848.78 214.115 1848.47 215.985C1846.92 220.972 1850.64 227.517 1844.43 232.815L1845.68 239.672C1837.91 248.398 1842.88 262.112 1836.05 271.773L1837.29 278.63L1833.26 287.045C1833.26 287.668 1834.5 287.98 1834.5 288.291C1835.74 293.278 1831.08 296.395 1830.46 299.511C1829.84 302.628 1829.84 309.173 1829.22 313.536C1826.11 329.743 1819.59 347.508 1820.83 363.714C1815.25 369.324 1817.73 377.116 1815.25 383.349C1812.76 389.582 1814 384.284 1814 384.596C1814 384.908 1814 385.531 1814 385.842C1813.69 386.466 1811.21 388.959 1810.59 389.271C1809.97 389.582 1809.66 389.271 1809.35 389.271C1809.04 389.271 1808.41 390.517 1808.1 390.517C1806.55 390.829 1801.58 390.517 1799.72 390.517C1790.4 389.271 1779.85 391.452 1769.29 390.517C1758.73 389.582 1763.08 388.647 1755.32 390.517C1747.55 392.387 1747.86 388.336 1742.9 389.271C1737.93 390.206 1741.34 391.452 1738.86 390.517C1736.38 389.582 1737.31 386.466 1736.69 385.531C1733.89 379.298 1734.2 376.181 1732.65 370.259C1731.1 364.338 1731.41 369.324 1731.41 369.013C1730.17 365.273 1730.79 361.221 1730.17 357.793C1728.92 351.871 1730.17 342.521 1728.92 338.158C1727.68 333.794 1726.44 336.288 1726.13 335.353C1723.96 327.873 1722.09 316.03 1723.33 308.861C1715.88 304.81 1720.85 296.706 1719.3 290.785C1717.75 284.863 1714.33 287.98 1718.06 282.37C1714.64 272.397 1709.98 259.307 1711.22 250.268V249.022C1709.05 247.152 1707.81 245.905 1708.43 242.788H1701.6L1702.84 246.217C1697.25 249.645 1699.43 252.45 1698.8 257.437C1698.18 262.423 1698.18 265.54 1697.56 268.657C1696.94 271.773 1695.08 270.215 1696.32 274.267C1697.56 278.318 1691.04 288.915 1692.28 295.148C1693.84 304.186 1689.18 305.433 1688.25 310.42C1687.32 315.406 1687.94 320.705 1687 324.445C1686.07 328.185 1684.52 326.315 1684.21 327.25C1682.97 331.613 1684.83 340.339 1684.21 345.326C1683.28 352.494 1676.14 358.104 1680.17 366.208C1677.38 369.013 1678 373.999 1677.38 377.428C1676.76 380.856 1673.65 383.037 1673.34 384.284C1673.03 385.531 1673.96 389.894 1671.17 390.517C1668.37 391.141 1665.58 390.517 1664.34 390.517C1659.37 389.894 1653.78 388.336 1647.57 389.271C1641.36 390.206 1645.4 391.452 1641.98 390.517C1636.08 389.271 1634.22 391.452 1629.56 390.517C1624.9 389.582 1610.62 389.582 1605.96 390.517C1601.3 391.452 1600.68 389.271 1600.37 389.271C1600.06 389.271 1599.13 391.452 1596.96 390.517C1597.89 388.024 1595.71 386.466 1595.71 385.531C1594.16 379.298 1594.16 373.064 1592.92 367.454C1591.68 361.844 1587.33 359.663 1591.68 353.429C1584.85 346.573 1589.19 336.911 1583.29 329.743L1584.54 324.133C1576.77 310.731 1580.19 291.096 1572.12 276.76L1573.36 272.708C1566.22 258.683 1571.81 244.658 1563.73 230.945C1555.66 217.232 1561.56 212.869 1559.7 204.454C1557.83 196.039 1558.14 195.727 1556.9 191.987C1555.66 188.247 1555.35 180.767 1554.11 175.157C1552.86 169.547 1549.76 163.937 1548.52 158.327C1547.27 152.717 1548.52 154.899 1548.52 153.341C1551.62 154.587 1554.42 148.354 1556.28 147.731C1558.14 147.107 1558.14 147.731 1559.07 147.731C1560.32 147.419 1561.25 145.549 1564.66 146.484C1568.08 147.419 1571.18 148.666 1575.84 147.731C1580.5 146.796 1585.16 147.107 1592.61 147.731C1600.06 148.354 1603.48 147.419 1608.45 147.731L1606.89 148.354ZM1684.52 176.092H1681.73L1683.9 178.897H1684.52V176.092ZM1719.3 176.092L1715.26 178.274L1717.43 181.702L1719.61 179.52V176.092H1719.3ZM1836.98 191.364C1841.02 189.182 1843.19 182.014 1839.15 178.897L1835.74 183.884L1836.98 191.675V191.364ZM1597.27 185.754V182.325L1595.09 180.144L1592.92 183.572L1596.96 185.754H1597.27ZM1807.79 194.169L1815.56 196.974C1820.83 196.974 1819.59 189.805 1812.76 191.364L1807.79 194.169ZM1838.53 192.922C1834.81 192.61 1831.39 192.922 1831.7 196.974C1835.43 197.285 1838.84 196.974 1838.53 192.922ZM1582.05 198.22V194.169H1581.43L1579.26 196.35V198.532H1582.05V198.22ZM1608.45 206.635V203.83H1607.2V206.635H1608.45ZM1832.94 210.999H1830.15L1832.32 213.804H1832.94V210.999ZM1731.72 230.322L1735.75 221.284V220.037L1732.34 215.05L1729.54 226.27L1731.72 230.322ZM1830.15 224.712L1826.73 216.297C1821.15 219.102 1829.84 225.023 1830.15 224.712ZM1699.74 226.27V223.465H1698.49V226.27H1699.74ZM1579.26 244.347V241.542H1578.02V244.347H1579.26ZM1827.36 244.347H1824.56L1826.73 247.152H1827.36V244.347ZM1828.6 248.398H1825.8V249.645H1828.6V248.398ZM1738.55 254.008C1739.17 254.632 1742.28 251.515 1741.34 249.957C1740.72 249.333 1737.62 252.45 1738.55 254.008ZM1666.51 255.567V251.515H1665.27V255.567H1666.51ZM1592.92 252.762H1590.13V254.008H1592.92V252.762ZM1750.97 260.865V258.06L1748.18 260.242V260.865H1750.97ZM1659.68 263.67H1656.89C1656.57 266.163 1656.88 267.722 1659.06 269.28H1659.68V263.67ZM1794.13 270.838H1790.09V271.462L1792.27 273.643H1794.44V270.838H1794.13ZM1665.27 276.137H1662.47V280.188L1665.27 278.006V275.825V276.137ZM1680.48 281.746H1677.69V284.551H1680.48V281.746ZM1594.47 288.915C1597.89 289.538 1599.13 287.668 1601.3 285.486L1597.89 283.305L1594.47 288.915ZM1654.09 309.796C1658.75 310.42 1661.85 307.303 1657.51 304.186H1654.09V309.796ZM1812.14 313.848H1808.72L1806.55 316.03L1809.97 318.211L1812.14 314.16V313.848ZM1798.17 333.483C1799.1 330.678 1796.93 329.431 1796.93 328.496C1795.99 325.691 1800.96 322.575 1795.68 320.705L1794.44 328.496L1790.4 330.678V336.288L1798.79 333.483H1798.17ZM1810.59 325.068H1807.79V331.924H1810.59V325.068ZM1658.13 327.873H1655.33L1657.51 330.678H1658.13V327.873ZM1604.1 338.781C1609.07 336.911 1605.96 333.794 1605.34 330.366H1604.1V338.781ZM1641.67 340.339L1641.05 330.678C1637.63 334.106 1635.15 340.028 1641.67 340.339ZM1749.73 331.924H1746.93V333.171H1749.73V331.924ZM1792.58 345.949C1789.16 345.326 1786.68 346.573 1786.99 350.001C1790.4 350.624 1792.89 349.378 1792.58 345.949ZM1810.59 347.196H1806.55V347.819L1808.72 350.001H1810.9V347.196H1810.59ZM1773.33 359.663H1767.12L1764.94 363.714L1773.33 359.663ZM1805.31 368.078C1801.89 367.454 1799.41 368.701 1799.72 372.129H1805.31V368.078ZM1628.94 370.883H1626.14V373.688H1628.94V370.883ZM1760.91 370.883H1758.11V373.688H1760.91V370.883ZM1764.94 373.688H1762.15V374.934H1764.94V373.688ZM1753.76 380.544V377.739H1752.52V380.544H1753.76Z" fill="white"/>
<path d="M312.062 312.598H318.273L320.446 310.417C320.446 309.17 320.446 307.612 320.446 306.365C321.378 302.313 320.446 303.248 320.446 302.313C320.446 301.378 322.93 295.145 323.241 293.898C325.725 283.302 324.793 270.524 327.277 260.55C329.761 250.577 331.314 255.564 331.314 254.94C332.246 251.512 331.625 243.72 332.556 239.669C334.109 233.124 334.73 224.086 336.593 215.982C338.456 207.879 337.524 207.256 337.835 201.957C339.077 191.049 346.84 177.959 343.424 167.051C346.219 165.181 344.045 161.129 344.666 158.636C345.287 156.143 351.187 151.468 352.429 150.844C353.671 150.221 356.776 149.909 358.018 148.039L362.055 149.286C365.781 144.923 368.886 150.221 370.438 150.533C371.991 150.844 378.512 150.533 380.064 150.533C381.617 150.533 380.996 149.286 381.306 149.286C387.516 148.039 391.553 149.286 398.074 148.039C399.005 148.663 401.8 150.844 402.11 150.844C407.7 152.091 412.357 148.663 417.325 150.844L419.499 149.598L423.536 159.883C420.12 169.544 429.435 183.569 426.33 193.231C429.125 195.101 430.056 201.334 430.367 204.451C431.298 212.866 430.367 227.202 434.404 233.747C438.44 240.292 436.577 237.799 437.198 242.162C438.751 251.2 439.061 259.927 441.235 268.654C443.408 277.38 441.856 278.315 442.477 281.12C443.098 283.925 444.961 282.99 445.271 283.925C446.203 287.665 443.719 296.08 445.271 302.002C446.824 307.923 447.756 303.872 448.066 304.807C448.377 306.365 448.066 309.17 448.066 311.04C451.171 310.417 452.413 311.663 454.276 313.845L457.692 307.612C457.692 303.56 457.692 299.508 460.486 296.392C460.176 287.353 460.486 276.445 464.523 267.095C461.728 260.862 466.076 248.707 468.56 242.162L467.318 238.11C470.423 228.137 468.87 215.671 474.149 206.009C472.596 200.399 474.149 190.426 475.391 183.881C476.633 177.336 480.67 170.479 479.428 164.246C478.186 158.013 478.186 163.311 478.186 162.999C478.186 162.688 479.428 162.064 479.428 161.753C479.428 160.506 479.428 158.636 479.428 157.701C479.428 156.766 481.912 155.831 482.222 154.896C482.533 153.961 482.222 153.026 482.222 152.091C482.843 149.286 489.985 148.039 492.469 148.663C494.953 149.286 493.401 149.909 493.711 149.909C498.369 150.533 507.684 151.779 511.721 151.156C515.757 150.533 521.036 150.533 525.694 149.909C530.351 149.286 533.146 149.598 535.319 149.909C538.735 150.221 539.356 153.338 540.288 156.143C536.562 159.259 538.114 163.934 537.493 167.363C536.872 170.791 534.698 171.103 534.698 171.414C532.525 181.076 535.319 195.412 529.109 203.516C533.767 207.256 526.936 210.061 526.315 211.931C525.694 213.801 526.936 217.852 526.315 220.346C525.694 222.839 523.52 224.086 523.52 224.397C521.968 232.189 523.52 241.539 522.278 249.33C521.036 257.122 517.31 255.564 516.689 257.745C515.757 262.42 516.999 267.407 515.447 273.017C513.894 278.627 514.826 274.887 515.447 277.069C516.999 283.302 512.031 285.795 511.41 289.535C510.789 293.275 512.031 295.457 511.41 297.95C510.789 300.443 508.616 301.69 508.616 302.002C507.684 306.365 508.305 311.975 507.374 317.273C505.821 325.377 503.958 334.415 501.784 342.206C499.611 349.998 498.99 361.53 494.953 368.698C494.953 369.01 496.195 369.633 496.195 369.945C497.127 374.62 494.022 375.866 493.401 378.36C492.78 380.853 493.711 384.281 493.401 386.775C493.09 389.268 491.227 388.021 492.159 390.203C489.985 390.826 489.364 388.956 488.743 388.956C480.359 387.398 470.423 392.073 462.35 390.203C454.276 388.333 435.646 388.333 427.572 390.203C419.499 392.073 421.052 388.021 417.325 388.956C417.946 386.775 416.083 386.151 416.083 385.528C415.152 383.035 414.22 379.606 413.289 377.113C410.805 369.01 411.426 360.595 409.252 353.426C405.526 341.583 405.216 329.117 400.868 317.273L402.11 313.222C396.521 308.858 398.695 301.69 398.074 295.145C397.142 285.172 393.727 272.394 389.69 263.044L390.932 257.434C388.758 256.187 390.001 254.629 389.69 253.382C389.38 252.135 384.101 249.642 388.448 246.525L386.274 243.097C375.096 241.85 380.064 248.084 378.512 253.382C376.959 258.68 376.028 255.252 375.717 256.187C374.786 258.992 376.649 264.602 375.717 267.407C374.786 270.212 373.233 269.277 372.922 270.212C371.059 277.38 371.68 288.912 370.128 296.703C368.575 304.495 367.333 300.443 367.333 300.755C366.712 304.183 367.954 309.482 367.333 313.222C366.712 316.962 362.055 320.702 361.744 321.637C360.813 325.065 362.365 332.545 361.744 336.908C361.123 341.271 355.223 349.686 358.949 354.985V356.231C354.292 359.971 356.465 368.698 354.913 374.308C353.36 379.918 352.429 376.178 352.118 377.113C351.497 379.295 352.429 383.035 352.118 385.528C350.876 386.151 346.219 390.203 345.908 390.514C344.355 390.826 342.182 390.514 340.319 390.514C338.456 390.514 339.387 391.761 339.077 391.761C336.903 391.761 331.625 392.073 329.451 391.761C327.277 391.45 328.519 390.514 328.209 390.514C323.551 389.268 320.757 389.891 317.031 389.268C313.304 388.645 308.647 389.268 305.852 392.073L297.468 389.268L291.879 392.073C291.258 392.073 290.948 390.826 290.637 390.826C287.843 390.203 275.422 391.449 274.801 390.826C274.801 388.956 274.801 386.463 274.801 384.593C274.18 380.541 270.143 373.996 270.764 370.568C272.006 363.4 266.728 358.725 265.175 352.491C263.623 346.258 267.038 331.298 259.586 323.195L260.828 316.338C257.723 311.975 254.618 305.43 258.034 301.067C255.239 295.768 251.202 287.665 252.444 281.432C253.686 275.199 251.202 271.77 249.65 266.16C246.855 255.875 247.166 247.149 244.061 236.864C240.955 226.579 241.576 234.994 241.266 234.059C239.713 228.449 244.061 221.281 237.229 217.229C240.955 213.177 237.229 207.256 234.435 203.204L237.229 199.152C231.951 195.101 237.229 186.997 230.398 182.322C230.398 182.011 231.64 181.387 231.64 181.076C232.572 175.778 229.156 175.466 228.846 174.219C228.224 171.726 229.467 167.051 228.846 164.558C228.224 162.064 225.119 162.376 226.051 158.948C226.982 155.519 227.293 158.013 227.293 157.701C227.293 156.454 226.982 154.584 227.293 153.649C227.603 152.714 231.33 150.221 232.261 148.663L237.85 151.468L241.887 150.221L245.924 151.468C252.134 148.351 261.139 150.844 266.728 150.221C272.317 149.598 279.148 149.909 280.701 150.221C285.048 151.468 283.806 157.701 284.116 160.506C284.427 163.311 285.048 167.363 285.358 170.168C285.669 172.973 290.637 175.154 289.395 178.583C285.979 190.114 295.916 199.776 292.19 210.684C297.468 218.476 296.537 227.514 299.021 237.175C301.505 246.837 299.021 244.032 300.263 249.642C301.505 255.252 300.884 264.29 304.3 270.524L301.505 277.38L305.542 282.99C305.542 284.237 305.542 286.107 305.542 287.042C304.61 291.093 304.921 296.703 308.336 301.067L307.094 306.677L309.889 312.91L312.062 312.598ZM386.895 156.454H384.101V159.259L386.895 156.454ZM381.306 170.479V167.051L377.891 164.869L375.717 168.298L377.891 170.479H381.306ZM399.316 167.674H396.521V170.479H399.316V167.674ZM259.276 174.843V170.791H258.034V174.843H259.276ZM364.539 172.038H361.744V173.284H364.539V172.038ZM260.828 177.336H258.034L260.207 180.141H260.828V177.336ZM416.083 182.946V180.141H414.841V182.946H416.083ZM406.147 182.946H403.352V186.997H406.147V182.946ZM368.886 188.556V185.751H367.644V188.556H368.886ZM515.757 195.724H512.963V196.971H515.757V195.724ZM281.632 196.971H276.664L274.491 200.399L276.664 202.581L281.632 201.334V197.282V196.971ZM496.506 201.022H493.711V202.269H496.506V201.022ZM521.347 201.022H518.552V202.269H521.347V201.022ZM511.721 212.242C514.826 212.242 516.999 212.866 518.552 210.061L516.378 207.879H515.136L511.721 211.931V212.242ZM511.721 213.801H508.926V215.047H511.721V213.801ZM413.289 217.852V215.047H412.047V217.852H413.289ZM262.07 219.099V216.294H260.828V219.099H262.07ZM281.632 223.462V219.411H280.39V223.462H281.632ZM382.548 224.709H378.512V225.956H382.548V224.709ZM507.374 239.98L506.132 230.319C506.753 233.436 501.474 240.915 507.374 239.98ZM482.533 238.734H478.496L481.912 242.785H482.533V238.734ZM514.515 245.59L512.342 241.539H508.926L511.1 245.59H514.515ZM357.707 244.344H354.913V247.149H357.707V244.344ZM496.506 251.2L486.88 251.824C489.674 255.564 492.159 255.564 496.506 255.252V251.2ZM288.464 270.835C288.464 266.472 287.222 263.044 291.258 260.55V259.304C287.843 253.694 279.769 254.629 281.632 262.109C283.495 269.589 284.116 265.537 284.427 266.16C285.048 267.719 283.806 271.459 288.464 271.147V270.835ZM408.942 260.862V258.057H407.7V260.862H408.942ZM353.671 262.42H350.876V263.667H353.671V262.42ZM292.5 280.497C290.637 278.627 281.322 288.288 287.532 291.717C290.637 289.847 289.085 287.353 289.706 285.484C290.327 283.614 292.811 281.12 292.5 280.497ZM348.082 286.107V283.302H346.84V286.107H348.082ZM488.122 290.158H484.085L485.327 299.82H496.506L495.264 291.405L490.295 294.21L488.122 290.158ZM352.118 308.235C349.013 308.235 346.84 307.612 345.287 310.417C348.082 314.157 352.429 312.91 352.118 308.235ZM482.533 312.598C482.843 309.793 480.98 307.923 478.496 308.547V312.598H482.533ZM277.285 323.507V320.702H276.043V323.507H277.285ZM453.345 329.117C452.103 327.87 446.824 332.233 447.756 334.727C448.998 335.973 454.276 331.61 453.345 329.117ZM321.688 335.973L319.515 333.168H315.478L313.304 335.35V335.973H321.688ZM276.043 348.751V345.946H274.801V348.751H276.043ZM447.756 349.998V347.193H446.513V349.998H447.756ZM467.318 352.803H464.523V354.985L466.697 357.166H467.318V353.115V352.803ZM456.139 354.361H453.345V355.608H456.139V354.361ZM439.682 372.438L433.472 375.243L434.714 379.295L439.682 372.438Z" fill="white"/>
<path d="M79.1799 149.598C79.8009 151.779 77.9378 152.403 77.9378 153.026C77.3168 156.143 80.1114 160.506 79.1799 165.493C76.0748 185.751 80.4219 207.567 76.3853 228.137L79.1799 234.994C74.8327 238.734 79.8009 253.694 79.1799 255.875C75.7643 267.095 79.1799 272.705 77.9378 283.613C76.6958 294.522 78.8694 313.222 76.6958 328.182L79.4904 332.233L78.2483 336.285C81.3534 341.271 84.7691 338.778 88.4952 339.713C92.2213 340.648 93.7739 339.09 96.879 339.713C103.4 341.271 113.647 339.09 121.72 340.96C129.793 342.83 126.377 339.713 129.483 339.713V163.623L131.656 161.441L136.624 162.688L133.209 158.636H131.035C130.414 152.403 130.414 148.974 137.245 147.416L142.835 150.221L151.218 146.169L158.05 147.416C163.639 144.923 171.402 148.663 178.854 147.416C186.306 146.169 181.027 145.234 184.443 146.169C189.722 147.728 187.238 158.948 187.859 163.623C188.79 170.168 187.238 174.531 187.859 181.699C188.79 191.984 187.859 204.451 189.101 213.801C190.343 223.151 187.548 219.722 187.859 220.657L189.101 224.086C192.516 224.086 196.242 223.774 199.348 224.086C202.453 224.397 200.279 225.332 200.59 225.332C206.179 225.644 215.184 224.397 220.152 225.332C225.12 226.267 221.083 226.579 221.394 226.579C221.704 226.579 222.636 226.579 222.636 226.579C226.672 229.072 225.43 234.059 226.051 236.864C226.672 239.669 228.536 238.734 228.846 239.669C229.467 242.162 228.846 245.902 231.641 248.084V250.889C227.914 253.694 231.641 258.992 231.641 260.55C232.262 267.407 230.399 278.004 231.641 284.237C232.883 290.47 234.435 287.977 234.435 288.288C235.367 293.275 232.262 297.327 233.193 300.755C235.677 311.663 233.193 312.287 231.951 321.637C230.709 330.987 233.504 329.117 233.193 330.052C232.883 330.987 231.951 330.987 231.951 331.298C231.951 332.545 232.262 334.415 231.951 335.35C231.641 336.285 227.293 339.401 226.362 340.96C225.43 342.518 224.188 347.816 221.394 348.751C218.599 349.686 218.289 348.44 217.357 348.751C216.426 349.063 214.252 352.491 213.32 352.803C209.905 353.738 206.8 353.738 203.695 354.05C200.59 354.361 202.763 355.296 202.453 355.296C199.348 355.608 193.448 355.92 191.274 354.05C189.411 354.985 189.722 356.855 189.101 357.478C186.306 362.776 186.306 363.4 185.064 368.698C183.822 373.996 179.785 373.685 181.027 376.49C173.886 374.62 175.128 379.606 174.196 380.541C173.265 381.476 172.954 380.23 172.023 380.541C168.296 382.1 160.844 387.086 158.05 387.398C154.013 388.021 148.113 386.774 144.077 387.398C140.04 388.021 134.14 387.398 127.309 388.645C120.478 389.891 118.615 386.463 113.336 387.398C108.057 388.333 99.6736 387.71 93.7739 388.645C87.8742 389.58 72.9697 385.84 64.5859 387.398C56.2021 388.956 63.0333 389.58 60.5492 388.645C55.5811 387.086 54.0285 388.021 49.3709 387.398C44.7132 386.774 48.4393 386.151 48.1288 386.151C46.8868 386.151 45.0237 386.463 44.0922 386.151C43.1606 385.84 43.1606 384.904 42.8501 384.904C41.9186 384.904 40.9871 384.904 40.0555 384.904C36.9504 383.969 29.4982 374.308 25.4615 371.815C25.4615 367.451 22.3564 363.088 19.8723 359.348L23.909 357.166L19.8723 350.933C20.8039 345.635 18.9408 337.531 19.8723 332.856C20.8039 328.182 21.1144 332.857 19.8723 328.805C18.6303 324.753 18.3198 312.598 19.8723 307.923C22.0459 301.067 17.3883 288.6 18.6303 281.432C22.0459 258.369 19.2513 229.384 18.6303 206.321C23.909 201.334 20.4934 195.412 19.8723 191.049C18.9408 181.387 21.4249 167.363 19.8723 160.506C18.3198 153.649 20.4934 151.779 19.8723 148.039L22.0459 145.858C29.1877 146.481 37.2609 145.234 44.0922 145.858C50.9234 146.481 56.8231 145.858 63.6543 147.104C70.4856 148.351 69.8646 145.858 73.2802 145.858L79.4904 148.663L79.1799 149.598ZM162.397 177.336L159.602 174.531V177.336H162.397ZM38.8135 181.699H36.0189V182.946H38.8135V181.699ZM142.835 210.996L146.871 208.814L144.077 205.386L142.835 210.996ZM172.023 210.996L167.054 209.749L164.881 213.177C167.675 216.917 172.023 215.671 171.712 210.996H172.023ZM44.4027 220.657V216.606H43.7817L41.6081 218.787L44.4027 220.969V220.657ZM37.5714 223.462C36.9504 220.657 34.7769 220.346 31.9823 220.657V223.462H37.5714ZM154.013 221.904V225.332L156.187 227.514L158.36 224.086L154.323 221.904H154.013ZM188.48 337.531C190.343 337.531 192.827 337.531 194.69 337.531C196.553 337.531 195.621 336.285 195.932 336.285C197.484 335.973 199.969 336.596 201.521 336.285C203.074 335.973 202.453 335.038 202.763 335.038C203.074 335.038 204.005 335.038 204.005 335.038C207.421 333.168 208.973 329.428 210.215 326C211.457 322.572 211.457 325.065 211.457 324.753C212.699 318.832 211.457 299.82 211.457 292.652C211.457 285.483 208.973 274.887 208.663 267.719C208.352 260.55 209.594 255.252 208.663 250.889C207.731 246.525 206.489 247.46 205.868 246.837C205.247 246.214 205.868 245.902 205.868 245.59C204.005 242.785 198.726 241.539 195.621 242.162C192.516 242.785 194.69 243.409 194.379 243.409C192.516 243.409 190.032 243.409 188.169 243.409C188.79 245.59 186.927 246.214 186.927 246.837C185.685 253.694 189.101 259.615 188.169 266.472C186.617 278.315 186.617 289.847 188.169 301.378C189.722 312.91 185.996 314.468 186.927 322.26C187.859 330.052 188.169 323.195 188.169 323.507C188.48 328.182 188.169 333.168 188.169 338.155L188.48 337.531ZM41.6081 248.395C44.7132 248.395 46.8868 249.019 48.4393 246.214C46.5763 243.409 44.4027 244.032 41.6081 244.032V248.084V248.395ZM167.675 259.615V256.81L164.881 258.992V259.615H167.675ZM170.47 292.963V290.158H169.228V292.963H170.47ZM151.218 306.988C151.218 303.56 154.634 301.378 150.597 298.573C149.355 300.132 139.729 307.923 141.593 309.793L151.218 306.988ZM52.7865 306.988V304.183H51.5444V306.988H52.7865ZM40.366 319.455V317.273L38.1925 315.092L36.0189 317.273V319.455H40.0555H40.366ZM61.1703 322.26L65.2069 320.078L63.0333 316.65L60.8597 318.832V322.26H61.1703ZM149.666 327.87L147.492 325.065L145.319 327.247V327.87H149.355H149.666ZM44.4027 334.727H41.6081V337.531H44.4027V334.727ZM181.648 347.193V345.011L179.475 342.83L177.301 345.011L179.475 347.193H181.648ZM154.013 355.608V352.803H152.771V355.608H154.013ZM38.8135 355.608H33.2243C32.6033 360.283 35.7084 363.4 38.8135 359.036V355.608ZM119.236 364.023L122.03 361.841L119.857 359.66H119.236V363.711V364.023ZM148.424 373.685L145.629 370.88V373.685H148.424Z" fill="white"/>
<path d="M847.072 307.613L842.104 304.185C841.483 304.185 841.172 305.431 840.862 305.431C838.999 305.743 828.752 305.743 826.889 305.431C825.026 305.12 822.231 302.626 821.921 302.003C821.61 301.38 821.921 300.133 821.921 299.198C821.921 298.263 818.816 297.328 821.921 295.146L820.679 292.341L821.921 289.536C819.126 282.68 821.921 277.693 820.679 269.901C819.437 262.11 821.61 263.98 821.921 260.863C826.268 260.863 830.615 261.175 834.962 260.863C839.309 260.552 847.072 259.928 850.177 259.617C861.045 257.747 867.876 260.552 877.813 259.617C887.749 258.682 888.681 258.993 893.028 258.37C897.375 257.747 902.654 259.305 903.275 261.798C903.896 264.292 903.275 263.668 903.275 264.603C903.275 265.538 904.517 265.538 904.517 265.85C905.138 269.278 903.896 273.953 904.517 277.07C905.138 280.186 906.38 278.005 905.759 279.875C901.411 296.081 907.001 317.275 902.964 334.104C898.927 350.934 903.585 338.156 902.964 340.961C901.722 348.753 903.896 359.349 902.964 367.453C902.033 369.634 899.859 371.193 898.927 373.063C897.996 374.932 898.927 374.309 898.927 374.309C896.754 377.114 894.58 377.737 892.717 379.296C890.233 381.477 881.539 388.334 878.744 388.957C875.95 389.581 871.913 388.646 869.118 388.957C866.324 389.269 863.529 391.451 859.493 390.204C855.456 388.957 848.314 389.892 842.725 388.957C833.72 387.399 822.542 391.762 812.295 390.204C802.048 388.646 799.254 389.269 792.733 388.957C786.212 388.646 768.202 390.516 762.303 388.957C756.403 387.399 756.093 384.282 753.919 383.347C750.193 381.789 752.366 380.854 749.882 379.296C747.398 377.737 742.741 374.932 742.12 373.063C741.499 371.193 742.43 370.881 742.12 370.258C741.499 368.699 738.083 364.336 738.083 363.401C736.841 357.168 739.014 346.571 738.083 339.714C737.151 332.858 737.462 316.963 736.841 306.366C736.22 295.77 738.393 291.718 738.083 291.095C733.115 273.33 741.809 241.852 736.841 220.035C731.873 198.219 739.325 203.829 738.083 199.154C736.841 194.479 738.083 190.115 736.841 183.882C735.599 177.649 740.256 176.402 740.877 174.22C741.499 172.039 740.567 171.104 740.877 170.169C741.188 169.234 747.088 163.312 748.64 162.377C750.814 160.819 758.887 152.716 759.819 152.716C761.061 152.404 762.924 153.027 763.855 152.716C764.787 152.404 764.787 151.469 765.097 151.469C769.444 150.222 772.239 149.287 776.276 151.469C806.085 148.976 837.757 152.092 869.118 150.222C874.087 151.781 879.676 153.027 884.954 154.274C884.644 159.572 893.649 159.572 896.133 163.312C898.617 167.052 896.754 167.987 901.722 170.169L905.759 184.194C901.411 191.362 904.827 197.284 902.964 205.075C901.101 212.867 906.069 213.178 905.759 214.737L902.964 218.788C905.759 222.217 904.827 228.138 900.79 230.632C896.754 233.125 899.859 230.632 899.548 230.632C899.238 230.632 898.617 231.878 898.306 231.878C896.133 232.502 892.717 231.567 889.923 231.878C885.265 232.502 879.055 234.372 873.155 233.125C867.255 231.878 866.013 233.125 860.735 231.878C855.456 230.632 853.593 234.372 849.556 233.125C845.52 231.878 846.141 228.762 846.141 228.138C844.588 220.658 847.693 207.569 846.141 200.4C844.588 193.232 844.899 199.465 844.899 199.154C844.899 198.842 844.899 197.907 844.899 197.907C842.725 194.79 836.515 193.855 833.099 194.479C829.684 195.102 828.131 196.972 827.51 197.284C824.405 197.907 820.368 195.102 816.332 197.284L810.742 194.479C809.19 197.595 798.633 194.79 797.701 195.725L794.906 200.712C798.322 203.205 794.906 206.634 794.906 207.569C793.354 217.853 796.148 229.385 794.906 238.112C793.664 246.838 796.148 259.928 793.664 271.46C791.18 282.991 797.39 281.121 796.459 286.731C794.596 298.886 794.596 316.028 796.459 329.741C798.322 343.454 797.08 337.844 795.217 339.403L798.632 344.389L805.464 343.143C813.227 347.506 826.578 340.649 833.099 347.194H834.341C835.273 346.571 838.067 344.389 838.378 344.389C839.93 344.078 846.141 345.013 846.141 342.208V307.301L847.072 307.613ZM794.596 163.624C792.733 162.689 789.628 165.805 790.559 166.429C792.422 167.364 795.527 164.247 794.596 163.624ZM829.062 164.87H822.231L823.473 171.727C828.752 172.35 829.684 169.545 829.062 164.87ZM839.62 176.09L837.446 178.272L839.62 181.7L841.793 178.272L839.62 176.09ZM763.855 181.7V178.895H762.613V181.7H763.855ZM770.997 182.947H768.202V184.194H770.997V182.947ZM858.251 190.115V187.31L855.456 189.492V190.115H858.251ZM872.224 196.972L875.018 194.79V193.544L872.845 191.362H872.224V196.972ZM765.408 198.219C762.613 198.219 760.75 196.037 757.645 196.972C754.54 197.907 755.161 199.777 755.472 201.024C757.956 201.024 760.44 201.024 763.234 201.024C766.029 201.024 767.271 199.777 765.408 198.219ZM750.193 231.878V226.268H749.572L747.398 228.45V229.697L750.193 231.878ZM765.408 263.668V260.863H764.166V263.668H765.408ZM867.876 302.626V298.575H866.634V302.626H867.876ZM859.493 309.795V306.99H858.251V309.795H859.493ZM872.224 312.6V306.99H870.981V312.6H872.224ZM784.66 313.846V309.795H783.417V313.846H784.66ZM876.26 313.846V311.041H875.018V313.846H876.26ZM865.082 325.066H862.287V327.871L865.082 325.066ZM883.091 340.338L880.297 337.533V340.338H883.091ZM858.251 349.999V347.194L855.456 349.376V349.999H858.251ZM802.669 355.609H799.875V356.856H802.669V355.609ZM827.2 365.271L825.026 367.453L827.2 370.881L829.373 367.453L827.2 365.271ZM838.688 369.634V367.453L835.894 365.271V369.322H838.688V369.634ZM809.811 373.686V370.881H808.569V373.686H809.811Z" fill="white"/>
<path d="M1297.62 388.956C1299.49 384.905 1293.9 383.035 1293.59 381.165C1293.28 379.295 1293.9 376.178 1293.59 374.308C1293.28 372.438 1289.55 369.322 1289.55 368.698C1288 363.088 1287.07 356.232 1285.51 350.622C1283.96 345.012 1283.03 348.752 1282.72 347.817C1281.17 342.207 1280.55 334.415 1278.68 329.74C1275.89 322.26 1272.16 316.339 1271.85 308.235H1269.06C1269.99 306.054 1266.57 303.249 1266.26 302.002C1265.64 299.197 1267.5 296.392 1264.09 294.21H1254.46L1245.46 299.197C1245.46 301.69 1245.15 305.119 1245.46 307.612C1246.39 313.534 1244.53 317.897 1245.46 324.442C1246.39 330.987 1247.32 337.22 1246.7 339.713C1245.46 344.7 1245.46 363.4 1246.7 369.01C1247.94 374.62 1241.73 380.853 1245.46 384.281V385.528C1240.18 391.45 1232.11 388.021 1225.28 388.956C1218.44 389.891 1222.17 391.138 1218.44 390.203C1211.92 388.956 1199.19 388.956 1193.6 390.203C1188.01 391.45 1188.01 390.203 1187.39 388.021C1186.46 384.593 1188.95 382.723 1188.64 382.411C1188.64 381.788 1187.39 381.476 1187.39 381.165C1186.46 374.62 1190.81 367.763 1190.19 365.893C1189.57 364.023 1185.84 361.842 1187.39 354.673C1188.95 347.505 1189.57 330.052 1188.64 322.572C1187.7 315.092 1187.39 308.547 1188.64 301.69C1189.88 294.834 1187.7 285.172 1189.88 275.199C1192.05 265.226 1186.15 265.537 1187.08 258.369C1188.32 248.084 1191.43 236.864 1189.88 225.021C1188.32 213.178 1188.01 223.151 1188.64 219.411C1189.57 214.113 1189.57 196.036 1188.64 190.114C1187.7 184.193 1189.88 184.193 1189.88 183.258C1191.12 174.531 1188.01 160.506 1189.88 152.715C1191.74 144.923 1191.12 151.78 1191.12 151.468C1191.12 151.156 1191.12 150.221 1191.12 150.221C1191.74 148.975 1193.6 148.04 1194.53 146.793L1201.37 148.04C1204.78 143.676 1217.2 148.663 1219.38 148.04C1223.72 146.793 1225.9 147.105 1229 146.793C1233.97 145.858 1241.11 147.416 1246.39 146.793C1246.39 149.286 1246.08 152.091 1246.39 154.585C1247.94 164.558 1245.46 174.843 1247.63 185.128L1244.84 189.179L1246.08 196.036C1242.97 201.023 1247.32 213.489 1246.08 218.164C1243.91 226.891 1244.84 229.384 1246.08 237.799C1247.32 246.214 1246.08 242.162 1246.08 244.032C1248.56 243.097 1250.74 245.902 1252.29 245.279C1253.84 244.656 1253.22 244.032 1253.53 244.032C1256.95 243.409 1265.64 245.591 1266.57 241.851C1267.5 238.111 1266.57 239.981 1266.57 239.046C1268.13 234.682 1267.19 233.124 1267.82 229.384C1268.44 225.644 1272.16 220.657 1273.4 216.917C1274.96 211.619 1277.44 206.944 1278.99 201.646C1280.55 196.348 1282.1 190.426 1284.58 186.374C1288.93 178.894 1286.76 180.764 1288.62 173.908C1290.48 167.051 1292.04 169.856 1292.66 168.298C1294.21 164.246 1295.14 158.013 1296.69 154.273C1298.25 150.533 1297.93 151.78 1297.93 151.468C1299.49 148.663 1303.21 146.793 1305.7 145.235H1306.94C1307.56 145.235 1307.87 146.481 1308.18 146.481C1315.01 148.04 1326.81 143.365 1334.58 145.235C1342.34 147.105 1340.79 143.053 1344.2 143.988C1347.62 144.923 1345.13 145.235 1345.44 145.235C1347.31 145.235 1349.17 145.235 1351.03 145.235C1356.31 145.858 1354.14 151.468 1354.45 155.52L1350.41 161.129C1349.17 168.298 1345.75 175.466 1343.58 182.011C1341.41 188.556 1337.37 196.659 1335.2 204.139C1333.02 211.619 1333.64 210.373 1332.4 213.801C1330.54 219.722 1328.68 225.644 1326.81 231.877C1324.95 238.111 1324.95 234.994 1324.02 238.734C1322.47 244.344 1315.32 253.694 1314.39 258.369C1313.46 263.044 1315.63 265.849 1313.15 268.031C1316.25 269.589 1315.32 272.394 1315.94 273.64C1317.19 276.445 1319.36 279.25 1319.98 282.055C1323.4 292.652 1326.19 303.56 1329.61 314.157C1333.02 324.753 1338.3 332.545 1339.23 337.843C1340.16 343.142 1338.61 342.83 1339.23 344.7C1339.85 346.57 1342.96 348.752 1343.27 350.31C1344.82 356.232 1345.75 362.465 1347.31 368.387C1348.86 374.308 1350.72 372.438 1351.34 373.997C1351.96 375.555 1350.72 377.113 1352.58 378.048L1346.37 389.891C1341.41 389.891 1336.13 390.203 1331.16 389.891C1326.19 389.58 1315.01 389.268 1309.11 388.645C1303.21 388.021 1296.38 389.268 1296.07 388.645L1297.62 388.956ZM1204.78 196.971H1201.99V198.218H1204.78V196.971ZM1221.55 199.776L1218.75 196.971V199.776H1221.55ZM1214.41 209.438H1211.61V210.684H1214.41V209.438ZM1283.96 229.072C1284.58 229.696 1287.69 226.579 1286.76 225.021C1286.14 224.397 1283.03 227.514 1283.96 229.072ZM1297.62 234.682V231.877H1296.38V234.682H1297.62ZM1299.18 244.344H1296.38V245.591H1299.18V244.344ZM1285.2 247.149H1283.03L1280.86 249.331L1283.03 251.512H1285.2V247.461V247.149ZM1201.99 251.201H1199.19V252.447H1201.99V251.201ZM1214.41 255.564H1207.58V256.187C1209.75 259.304 1213.17 259.304 1214.41 255.564ZM1289.55 260.862H1286.76V263.667L1289.55 260.862ZM1250.74 266.472H1247.94L1250.12 269.277H1250.74V266.472ZM1297.62 276.134V273.329H1296.38V276.134H1297.62ZM1290.79 280.497H1288L1290.17 283.302H1290.79V280.497ZM1281.17 287.354H1278.99L1276.82 290.159H1280.86V287.354H1281.17ZM1296.38 297.015V294.21H1295.14V297.015H1296.38ZM1308.8 301.379H1304.77C1304.77 304.807 1303.83 307.612 1306.94 309.794C1310.04 307.924 1308.8 304.807 1309.11 301.379H1308.8ZM1231.18 326.312L1228.38 323.507V326.312H1231.18ZM1209.13 349.998H1206.33V352.803H1209.13V349.998ZM1326.81 352.803H1324.02V354.05H1326.81V352.803ZM1213.17 356.855L1210.99 354.05H1208.82V356.855H1212.85H1213.17ZM1225.59 372.438L1226.83 369.01V366.205L1224.03 364.023V372.438H1225.28H1225.59Z" fill="white"/>
<path d="M1981.37 151.159C1981.37 152.405 1981.37 153.652 1981.37 154.587C1983.54 162.69 1990.68 174.534 1988.2 182.325C1985.72 190.117 1991.62 195.103 1992.24 197.597C1994.72 207.258 1996.89 217.232 1999.07 226.893C2001.24 236.555 2002.79 236.866 2003.1 240.918C2004.04 249.645 2002.48 250.268 2005.9 258.995C2009.31 267.41 2008.38 276.448 2011.49 285.486C2013.66 291.408 2013.97 295.459 2015.52 300.758C2017.7 307.303 2022.05 318.211 2019.56 324.444C2024.53 328.496 2020.49 336.911 2026.39 341.274L2025.15 345.326C2029.5 348.754 2027.01 354.364 2027.94 357.792C2028.88 361.221 2030.43 359.662 2030.74 360.597C2031.36 363.091 2030.12 367.766 2030.74 370.259C2031.36 372.752 2033.22 372.129 2033.53 373.064C2034.16 375.246 2033.22 378.986 2033.53 381.479C2033.84 383.972 2035.71 383.037 2034.78 385.531L2029.81 390.517C2024.53 389.894 2018.01 391.452 2013.04 390.517C2008.07 389.582 1997.2 391.764 1989.44 390.517C1981.68 389.27 1984.78 387.089 1982.61 390.517L1974.85 382.726C1974.54 379.609 1975.47 375.869 1974.85 373.064C1974.23 370.259 1970.19 361.221 1969.26 357.792C1968.33 354.364 1969.88 351.871 1969.26 349.377C1968.64 346.884 1968.02 348.442 1968.02 348.131C1968.02 347.819 1968.02 346.884 1968.02 346.884C1967.71 346.261 1965.22 343.767 1964.6 343.456C1963.98 343.144 1963.67 343.456 1963.36 343.456C1963.05 343.456 1962.43 342.209 1962.12 342.209C1960.56 341.897 1955.6 342.209 1953.73 342.209C1947.52 342.832 1948.45 342.832 1942.55 342.209C1936.65 341.586 1929.51 342.521 1922.99 342.209C1920.82 344.079 1919.58 346.884 1916.78 346.261C1915.85 349.066 1918.96 351.247 1918.02 354.052C1917.09 356.857 1915.54 355.922 1915.23 356.857C1913.99 361.844 1915.54 369.947 1911.19 373.687L1912.43 379.297C1912.43 381.167 1908.4 385.842 1908.4 386.154C1908.4 387.089 1908.4 388.024 1908.4 388.959C1907.78 391.452 1900.64 391.452 1898.15 391.14C1888.84 389.582 1875.79 392.387 1864.93 389.894C1854.06 387.4 1859.03 392.075 1856.54 391.14C1855.92 389.582 1854.06 389.894 1853.75 389.894C1850.02 387.712 1849.71 383.349 1850.33 379.609C1850.95 375.869 1851.57 378.674 1851.57 378.362C1853.13 372.752 1852.82 366.831 1857.16 361.532L1855.92 357.481C1859.03 350.312 1859.65 341.586 1861.51 333.794C1869.27 302.939 1877.04 271.773 1882.32 239.048C1891.01 229.075 1883.87 214.115 1894.74 205.7L1891.94 198.843C1894.11 195.415 1893.49 190.428 1894.74 186.377C1895.98 182.325 1897.22 184.507 1897.53 183.572C1898.46 180.143 1897.53 177.027 1897.53 176.715C1899.08 170.794 1901.57 164.56 1903.12 158.639C1904.67 152.717 1902.81 155.522 1903.12 154.587C1904.05 151.47 1909.33 150.535 1912.12 151.159C1914.92 151.782 1913.06 152.405 1913.37 152.405C1918.65 153.029 1923.61 153.652 1928.58 152.405C1933.55 151.159 1937.9 152.094 1942.55 151.159C1949.7 149.6 1959.94 152.094 1966.15 152.405C1972.36 152.717 1975.78 152.405 1980.75 152.405L1981.37 151.159ZM1968.64 169.235H1965.84V172.04H1968.64V169.235ZM1914.61 174.845C1911.81 174.533 1909.95 176.403 1910.57 178.897H1914.61V174.845ZM1914.61 185.753H1911.81V189.805L1914.61 187.623V185.442V185.753ZM1965.84 201.025V198.22H1964.6V201.025H1965.84ZM1961.81 226.27H1959.01V227.517H1961.81V226.27ZM1932.62 295.771H1952.8L1954.97 293.589C1954.97 288.914 1955.29 284.239 1954.97 279.564C1954.66 274.89 1954.04 265.851 1953.73 264.293C1953.42 262.735 1950.01 262.111 1950.94 258.683C1951.87 255.255 1950.01 255.255 1949.7 253.073C1948.76 249.333 1950.32 243.1 1949.7 239.048C1949.08 234.996 1948.45 238.113 1948.45 237.801C1948.45 236.866 1948.45 235.931 1948.45 234.996C1948.45 234.061 1947.21 234.061 1947.21 233.75C1947.21 233.438 1947.21 231.88 1947.21 231.568C1947.21 231.256 1943.49 230.633 1942.24 230.321C1940.69 231.568 1940.69 232.191 1940.07 233.75C1939.14 238.425 1939.14 243.723 1937.28 247.775L1938.52 253.385C1932.93 264.293 1935.1 278.941 1932.93 291.096C1930.76 303.251 1931.69 292.031 1931.69 292.343C1931.69 292.654 1933.86 293.901 1932.93 295.771H1932.62ZM1893.8 254.008C1894.43 250.58 1893.18 248.086 1889.77 248.398C1889.15 251.826 1890.39 254.32 1893.8 254.008ZM1992.24 258.06V252.45H1991.62L1989.44 254.631V255.878L1992.24 258.06ZM1986.65 259.618C1982.61 259.618 1977.95 258.683 1978.26 263.67C1982.3 263.67 1986.96 264.605 1986.65 259.618ZM1903.74 262.423H1900.95V263.67H1903.74V262.423ZM1990.99 276.136L1988.2 273.331V276.136H1990.99ZM1910.57 290.161V284.551L1906.54 285.798V288.603L1910.57 289.849V290.161ZM1967.4 286.109C1961.81 286.109 1961.81 293.278 1967.4 292.966V286.109ZM1922.99 298.576L1913.37 295.771C1912.12 296.706 1915.85 301.069 1916.78 301.381C1918.96 302.004 1924.54 302.316 1922.99 298.576ZM1892.56 306.991C1895.36 306.368 1895.67 304.186 1895.36 301.381C1892.56 302.004 1892.25 304.186 1892.56 306.991ZM1999.38 308.238V301.381H1998.76C1995.65 303.563 1995.65 306.991 1999.38 308.238ZM1924.54 316.653V313.848H1923.3V316.653H1924.54ZM1896.6 329.119V325.068H1895.98L1893.8 327.249V329.431H1896.6V329.119ZM1882.94 329.119H1877.35V333.171H1882.94V329.119ZM1907.78 330.678H1904.98V331.924H1907.78V330.678ZM1918.96 331.924H1916.16V333.171H1918.96V331.924ZM1985.4 338.781H1982.61V340.027H1985.4V338.781ZM2010.25 351.559C2010.56 349.066 2010.25 346.884 2007.45 345.949V351.559H2010.25ZM1900.95 358.416H1895.36V359.039C1897.22 360.597 1898.15 363.091 1900.95 362.467V358.416Z" fill="white"/>
<path d="M1378.05 390.518C1378.98 388.025 1376.8 386.155 1376.8 385.531C1376.49 383.038 1376.49 375.246 1376.8 373.065C1377.11 370.883 1378.67 368.39 1379.6 364.65C1384.26 343.457 1391.71 322.887 1393.57 300.758C1398.85 285.175 1404.13 265.852 1404.75 250.58C1406.92 246.217 1409.41 238.114 1410.34 233.751C1411.27 229.387 1411.89 219.726 1413.13 215.674C1414.38 211.622 1415.62 213.804 1415.93 212.869C1417.79 205.701 1417.79 198.532 1419.97 190.741C1422.14 182.949 1423.69 175.469 1425.55 167.054C1427.42 158.639 1426.18 163.938 1426.8 161.444C1427.42 158.951 1429.28 154.899 1431.76 152.406L1441.39 149.601C1445.12 152.406 1451.64 150.224 1456.61 150.848C1465.61 152.094 1471.2 150.536 1480.2 149.601C1489.21 148.666 1489.83 150.536 1495.42 149.601C1501.01 148.666 1501.01 149.601 1503.8 149.601L1507.22 154.588C1510.01 163.314 1510.32 172.041 1514.05 179.521L1512.81 186.378L1516.84 191.987L1515.6 196.039C1517.78 200.402 1522.12 209.441 1519.64 212.869V214.116C1524.92 218.167 1522.74 226.582 1523.68 232.192C1524.61 237.802 1525.85 236.244 1526.47 240.607C1527.71 247.464 1531.13 258.372 1533.3 267.099C1535.48 275.825 1536.41 289.539 1538.89 300.447C1541.37 311.355 1544.17 308.238 1544.48 310.108C1545.72 316.653 1545.72 323.198 1547.27 329.743C1548.83 336.288 1550.69 346.573 1552.86 354.676C1554.73 362.468 1555.66 370.883 1559.69 378.363L1558.45 388.025L1556.28 390.206C1554.42 390.206 1552.55 390.206 1550.69 390.206C1548.83 390.206 1549.76 391.453 1549.45 391.453C1549.14 391.453 1548.52 390.206 1548.21 390.206C1542.62 389.271 1536.1 389.583 1531.44 390.206C1523.37 391.453 1512.19 389.271 1503.8 390.206L1500.39 386.778C1499.77 383.038 1501.01 377.74 1500.39 374.311C1499.77 370.883 1497.59 370.571 1497.59 370.26C1496.35 364.961 1496.66 360.91 1494.8 354.988C1492.94 349.067 1494.8 350.625 1494.8 349.378C1494.8 348.132 1493.56 348.443 1493.56 348.132C1493.56 347.197 1493.56 346.262 1493.56 345.327C1492.62 342.522 1489.21 343.768 1487.35 343.145C1482.79 342.106 1478.13 342.106 1473.37 343.145C1469.96 344.08 1468.4 341.898 1467.78 341.898C1461.57 340.963 1453.5 342.522 1446.98 341.898C1445.12 342.833 1445.43 344.703 1444.81 345.327C1444.18 345.95 1442.01 349.066 1442.01 349.378C1441.39 352.183 1441.39 355.923 1440.77 359.04C1440.15 362.156 1440.15 366.52 1439.53 370.26C1438.91 374 1436.73 374 1436.73 374.311C1436.11 376.805 1435.8 378.986 1435.49 381.168C1435.18 383.35 1435.8 384.285 1435.49 385.22C1435.18 386.155 1430.83 389.895 1430.52 390.206C1427.11 391.141 1424.31 388.025 1420.9 388.96C1414.69 390.518 1411.58 391.453 1405.68 390.206C1399.78 388.96 1390.47 389.583 1386.12 390.206C1381.77 390.83 1380.84 390.206 1378.36 390.206L1378.05 390.518ZM1443.25 159.263H1440.46V160.509H1443.25V159.263ZM1452.88 195.727H1450.08V202.584H1452.88V195.727ZM1507.22 202.584L1504.42 199.779V202.584H1507.22ZM1465.61 205.389C1462.82 205.077 1460.95 206.947 1461.57 209.441H1465.61V205.389ZM1443.25 212.246C1443.56 209.752 1443.25 207.571 1440.46 206.636V212.246H1443.25ZM1484.86 206.636H1479.27C1479.27 212.246 1484.86 212.246 1484.86 206.636ZM1457.23 219.102C1457.85 216.297 1455.36 215.362 1453.81 213.492L1451.64 216.921L1453.81 219.102H1457.23ZM1428.04 216.297H1425.24V217.544H1428.04V216.297ZM1479.27 295.772C1478.96 292.032 1479.58 287.669 1479.27 283.929C1478.96 280.189 1477.1 280.812 1478.03 277.072C1479.89 268.657 1474.3 261.489 1475.24 254.944C1476.17 248.399 1476.17 250.892 1475.24 248.087C1474.3 245.282 1469.96 240.296 1473.99 236.867V235.621C1471.82 233.127 1469.96 231.257 1466.23 232.192C1462.51 233.127 1464.68 237.802 1464.06 239.984C1462.51 247.775 1458.78 256.502 1460.02 263.67C1461.26 270.839 1456.61 275.514 1455.98 280.5C1455.36 285.487 1455.67 289.227 1455.98 291.72C1456.29 294.214 1458.47 294.214 1457.23 296.707C1460.02 296.707 1461.57 298.888 1464.99 297.953C1468.4 297.019 1465.92 296.707 1466.23 296.707C1469.65 295.772 1472.44 298.888 1475.86 297.953C1479.27 297.019 1477.1 295.772 1479.27 296.707V295.772ZM1491.69 235.932H1487.66V237.179H1491.69V235.932ZM1494.49 262.424C1493.87 259.619 1491.69 259.307 1488.9 259.619V262.424H1494.49ZM1439.22 281.747C1437.97 278.63 1435.49 277.072 1432.39 277.695C1433.63 280.812 1436.11 282.37 1439.22 281.747ZM1491.69 294.525H1487.66V295.149L1489.83 297.33L1492 294.525H1491.69ZM1511.26 298.577V295.772H1510.01V298.577H1511.26ZM1425.24 305.433H1421.21V308.238H1423.38L1425.55 305.433H1425.24ZM1437.66 306.992H1434.87V309.797H1437.66V306.992ZM1469.65 312.602H1465.61V314.783L1467.78 316.965L1469.96 314.783V312.602H1469.65ZM1416.86 320.705L1414.69 317.9L1412.51 320.082V320.705H1416.55H1416.86ZM1497.28 326.315H1494.49V327.562H1497.28V326.315ZM1536.1 329.12V326.315H1534.85V329.12H1536.1ZM1536.1 340.34V338.158L1533.3 335.977V340.028H1536.1V340.34ZM1536.1 345.95V343.145H1534.85V345.95H1536.1Z" fill="white"/>
<path d="M1055.12 388.958C1055.12 387.711 1055.12 386.465 1055.12 385.53C1053.87 380.232 1048.91 372.128 1048.28 367.453C1047.66 362.778 1048.91 359.35 1048.28 356.233C1047.66 353.117 1044.56 350.623 1044.25 349.377C1043.94 348.13 1044.56 346.26 1044.25 345.325C1043.94 344.39 1042.07 344.078 1043.01 341.897C1040.83 342.52 1039.9 340.65 1039.59 340.65C1039.28 340.65 1037.73 342.832 1034 341.897C1027.48 340.338 1018.16 343.143 1010.4 341.897C1002.64 340.65 1002.95 342.208 999.223 341.897C998.602 343.143 994.566 347.818 994.255 348.13C993.945 349.688 994.255 351.87 994.255 353.74C994.255 355.61 991.771 360.285 991.461 362.155C989.908 369.947 989.598 378.362 987.424 385.841L982.456 390.828C980.282 390.828 977.488 391.14 975.625 390.828C969.725 389.893 964.446 391.763 957.615 390.828C950.784 389.893 944.884 389.27 938.053 390.828C931.222 392.386 930.911 387.711 927.806 384.595C927.806 382.725 927.495 380.543 927.806 378.985C928.116 377.427 929.048 378.05 929.048 377.738C931.532 370.57 932.153 362.778 934.637 355.61C938.053 344.702 938.674 333.17 941.468 322.262C944.263 311.354 945.816 303.562 948.3 294.524C950.784 285.485 949.231 286.109 952.336 283.304L951.094 277.694C951.094 277.07 952.336 276.759 952.336 276.447C955.752 268.032 955.752 257.436 957.925 248.709C960.099 239.982 961.962 236.866 963.515 230.632C965.067 224.399 967.241 219.101 967.551 215.361C967.862 211.621 966.93 206.323 967.551 202.894C968.172 199.466 971.277 195.726 971.588 193.233C972.52 187.623 972.83 178.896 974.383 173.598C975.935 168.3 976.867 171.728 977.177 170.793C978.109 167.676 976.867 165.495 978.419 161.131C979.972 156.768 982.145 152.716 984.629 152.093C987.113 151.47 993.634 152.716 997.05 152.093C1007.92 150.535 1017.85 150.223 1030.27 152.093C1042.69 153.963 1037.42 151.158 1042.69 152.093C1047.97 153.028 1057.29 150.223 1058.53 155.521C1059.77 160.82 1058.22 158.638 1058.53 159.573C1058.84 160.508 1061.33 163.313 1061.33 163.625C1061.64 165.495 1061.02 168.611 1061.33 170.481C1061.64 172.351 1064.12 174.221 1064.12 174.533C1064.74 177.338 1063.5 181.701 1064.12 184.194C1064.74 186.688 1066.6 186.064 1066.91 186.999C1068.16 191.363 1067.54 200.401 1068.16 205.076C1068.78 209.751 1076.54 217.854 1072.19 223.153C1078.71 229.697 1076.23 237.489 1077.78 244.034C1079.34 250.579 1082.75 254.007 1083.37 256.501C1083.99 258.994 1082.75 263.357 1083.37 266.162C1083.99 268.967 1086.17 269.902 1086.17 270.214C1086.79 273.019 1085.55 277.07 1086.17 279.875C1087.41 285.174 1090.51 291.407 1091.76 297.952C1093.62 307.614 1098.28 320.704 1100.14 331.3C1102 341.897 1103.87 359.35 1106.97 371.505C1110.08 383.66 1111.01 377.115 1111.01 378.362C1111.94 382.725 1111.32 387.711 1107.59 390.205H1068.78C1066.6 387.088 1065.36 390.205 1064.74 390.205C1061.33 391.14 1058.22 388.023 1054.49 388.958H1055.12ZM1009.47 176.091H1006.68V177.338H1009.47V176.091ZM1012.26 187.311H1009.47V188.558H1012.26V187.311ZM991.461 190.116H988.666V191.363H991.461V190.116ZM1002.33 191.363H995.497C994.876 194.168 997.36 195.103 998.913 196.973L1002.33 194.791V191.363ZM1006.68 191.363H1003.88V192.609H1006.68V191.363ZM1024.69 202.583L1019.1 196.973L1021.27 202.583L1027.48 203.829L1024.69 202.583ZM994.255 205.388V202.583H993.013V205.388H994.255ZM1034.31 208.193H1036.48L1038.66 206.011L1036.48 203.829H1034.31V207.881V208.193ZM1020.34 219.101C1021.58 217.543 1018.16 209.439 1014.75 210.686C1013.82 212.868 1019.41 220.036 1020.34 219.101ZM1053.87 212.244C1051.08 212.244 1051.08 211.621 1051.08 214.426C1051.08 217.231 1052.01 219.413 1055.12 220.659L1053.87 212.244ZM1039.9 223.464L1042.07 227.516L1045.49 225.334L1043.32 223.153H1039.9V223.464ZM1018.48 231.879C1016.3 233.437 1015.99 235.931 1015.06 238.112C1014.13 240.294 1013.82 239.047 1013.82 239.359C1012.89 243.099 1014.44 249.021 1013.82 253.384C1013.2 257.747 1011.33 257.747 1012.58 263.046C1013.82 268.344 1010.71 281.745 1009.78 285.174C1008.85 288.602 1007.61 287.355 1008.54 290.784L1011.95 295.77L1023.13 294.524L1028.72 297.329C1034.31 293.9 1031.21 289.225 1032.14 284.239C1033.07 279.252 1033.38 283.304 1033.38 282.992C1033.38 282.68 1030.59 276.759 1030.59 276.135C1029.96 271.772 1031.83 267.097 1027.79 263.669L1029.03 255.254C1023.75 250.267 1027.79 241.229 1026.24 235.619C1024.69 230.009 1021.27 234.061 1020.03 232.191H1018.79L1018.48 231.879ZM1005.12 238.736C1005.12 236.866 1000.78 233.437 999.534 234.684C999.223 236.866 1000.15 237.489 1001.71 238.736H1005.12ZM1049.53 245.592C1049.84 243.411 1048.91 242.476 1047.35 241.541C1045.18 239.671 1039.59 236.554 1038.35 240.917C1037.11 245.281 1037.73 244.346 1038.97 244.346L1049.22 245.592H1049.53ZM1049.53 270.837L1044.56 269.591L1042.38 276.447C1045.8 277.07 1049.53 274.577 1049.22 270.837H1049.53ZM1073.12 286.109H1069.09C1068.78 288.914 1070.64 290.784 1073.12 290.16V286.109ZM1051.08 287.355H1048.28V292.965C1051.08 292.342 1051.39 290.16 1051.08 287.355ZM999.534 313.847H996.739V315.094H999.534V313.847ZM1035.55 315.405L1031.52 317.587V321.015L1035.55 318.834V315.405ZM995.497 317.899C993.324 317.587 992.703 318.522 991.461 320.08V323.509H995.497V317.899ZM1007.92 319.457V322.885L1011.33 325.067L1013.51 321.639L1011.33 319.457H1007.92ZM1091.13 341.585H1084.3V342.832C1086.79 342.832 1088.34 345.013 1091.13 344.078V341.273V341.585ZM977.488 348.753H974.693V351.558H977.488V348.753ZM948.3 354.363V350.312H947.679L945.505 352.493L948.3 354.675V354.363Z" fill="white"/>
<path d="M643.378 341.584C641.515 341.584 639.031 341.584 637.168 341.584C635.305 341.584 636.237 340.338 635.926 340.338C631.579 339.403 627.853 344.078 621.953 343.143C616.053 342.208 617.606 342.519 612.327 343.143C607.049 343.766 604.565 343.143 601.149 341.896L594.939 348.129L596.181 353.739C590.592 359.349 592.144 369.946 590.592 377.426C589.039 384.906 586.555 382.412 586.555 383.036C586.244 384.282 586.865 386.152 586.555 387.087C586.244 388.022 583.45 390.516 583.139 390.516C580.655 391.139 561.714 390.827 558.298 390.516C551.157 389.581 545.878 391.451 538.736 389.269L534.7 390.516L531.284 389.269L530.042 383.036C532.216 381.789 530.974 379.607 531.284 377.426C532.216 373.063 533.458 368.388 534.079 364.959C535.631 356.233 539.668 348.753 538.115 341.273C543.394 336.286 541.841 325.378 543.704 319.145C545.568 312.911 546.189 317.275 546.499 316.34C548.052 310.73 547.12 303.25 549.294 296.705C553.951 281.745 555.504 266.162 560.472 250.89C563.888 240.293 564.509 228.762 568.856 218.788L567.614 213.179C573.824 205.387 571.34 195.725 577.24 188.245L574.445 184.194C578.482 181.389 576.929 175.779 578.482 171.727C580.034 167.675 581.897 164.247 582.518 160.507C583.139 156.767 581.897 155.209 582.518 153.651C583.76 149.599 593.386 148.352 595.56 153.027H596.802C600.528 147.417 607.359 152.092 610.775 150.222H655.178C656.109 151.469 657.972 152.404 658.593 153.651C660.146 156.144 659.525 158.637 659.835 160.507C660.146 162.377 662.319 162.377 662.63 163.312C663.562 166.117 665.735 176.402 665.425 178.584C664.493 183.882 668.53 189.18 669.461 195.414C670.393 201.647 671.945 212.867 673.498 220.347C675.05 227.827 680.019 234.06 677.535 239.982C683.434 251.202 682.503 265.85 685.918 277.693C689.334 289.536 689.955 280.81 689.955 281.745C690.886 285.485 691.818 293.9 692.75 298.575C694.302 306.678 695.234 315.405 696.786 323.508C698.339 331.611 704.549 332.546 699.581 337.533C701.754 341.896 706.101 350.934 703.617 354.363C707.033 360.596 710.759 373.063 709.207 379.296C712.312 383.036 714.175 388.334 708.586 389.581C702.996 390.827 706.723 389.581 705.791 389.581C704.859 389.581 704.859 390.827 704.549 390.827C695.234 392.074 677.224 390.827 668.53 389.581C659.835 388.334 662.32 390.827 658.904 390.827C658.283 389.269 656.42 389.581 656.109 389.581C653.004 387.399 654.557 385.529 653.936 383.347C653.004 379.919 650.831 373.686 648.347 370.881L649.589 365.271L646.794 362.466L648.036 358.414C643.689 355.921 646.173 352.181 645.241 348.753C644.31 345.324 641.826 344.701 642.447 342.519L643.378 341.584ZM604.565 185.752H601.77V189.804L604.565 187.622V185.44V185.752ZM653.004 185.752C648.968 185.129 644.931 186.687 644.62 191.362C646.794 192.297 653.936 186.687 653.004 185.752ZM654.557 196.972H651.762V199.777H654.557V196.972ZM647.415 220.658V218.477L644.62 216.295V220.347H647.415V220.658ZM632.2 294.523C631.579 289.536 633.131 283.303 632.2 278.628C631.268 273.953 626.611 269.901 630.958 266.162L628.163 262.11C629.405 254.318 627.542 244.968 625.369 237.177C623.195 229.385 622.264 232.19 621.953 232.19L615.743 235.618L616.985 241.228L614.19 245.28L615.432 249.332L612.638 253.383C614.501 261.487 610.775 271.148 609.843 279.875C608.912 288.601 610.154 289.225 609.843 293.9L621.643 300.133H622.885C625.058 299.198 624.748 296.081 625.058 296.081C625.369 296.081 626.3 296.393 627.232 296.081C628.474 295.458 629.405 293.9 632.2 294.835V294.523ZM639.031 239.982C639.652 240.605 642.757 237.488 641.826 235.93C641.205 235.307 638.1 238.423 639.031 239.982ZM597.733 242.787V239.982H596.491V242.787H597.733ZM580.966 249.955H575.377L578.792 256.812L580.966 249.955ZM564.198 272.083V269.278H562.956V272.083H564.198ZM568.545 274.888H565.751L567.924 277.693H568.545V274.888ZM673.808 287.355H668.84C664.804 290.16 667.288 293.276 671.635 292.965L673.808 290.783V287.355ZM648.968 291.718H646.794L644.62 294.523H648.657V291.718H648.968ZM675.361 299.821H672.566V301.068H675.361V299.821ZM562.956 304.185H560.162V309.171L562.335 311.353H562.956V304.496V304.185ZM608.601 312.6H604.565V313.223L606.738 315.405L608.912 312.6H608.601ZM677.224 316.651L675.05 318.833L677.224 321.014L679.398 318.833L677.224 316.651ZM605.807 323.508V320.703H604.565V323.508H605.807ZM680.64 343.143H677.845V344.389H680.64V343.143ZM561.404 351.558V348.753H560.162V351.558H561.404ZM579.724 348.753H576.929V349.999H579.724V348.753Z" fill="white"/>
<path d="M0 401.424C1.86306 402.982 3.41562 402.359 4.96817 402.671C6.52072 402.982 5.8997 404.541 7.76277 403.917C12.4204 402.671 24.5303 401.424 29.809 402.671C35.0877 403.917 36.6403 402.047 40.9874 402.671C56.2024 405.164 75.4541 400.801 90.9796 403.917L99.3634 401.112C107.747 404.852 120.478 401.112 129.793 402.359C139.109 403.606 143.456 400.801 150.598 402.359C157.739 403.917 169.849 401.112 179.786 402.359C189.722 403.606 199.037 400.801 204.626 402.359C210.216 403.917 207.111 404.541 206.8 405.787C205.248 407.969 204.316 410.462 201.832 412.021C199.348 413.579 194.69 415.761 193.448 416.072C189.101 417.631 184.754 416.696 181.028 417.319C177.302 417.942 177.302 420.124 176.991 420.124C174.507 420.747 171.091 419.812 168.607 420.124C163.018 420.747 156.187 424.176 150.598 425.734C145.008 427.292 133.52 427.916 128.551 426.981C122.031 426.046 102.779 425.422 93.7742 426.981C84.7694 428.539 86.0114 426.046 81.3538 426.981C76.6961 427.916 60.5496 425.422 54.9604 424.176C47.1976 422.306 37.2613 421.994 30.1195 420.124C22.9778 418.254 28.2565 417.631 27.3249 417.319C24.2198 416.384 17.0781 416.696 13.352 416.072C9.62583 415.449 4.34715 411.086 3.72613 410.462C-7.40315e-07 407.657 -3.00753e-07 405.476 0.31051 400.801L0 401.424Z" fill="white"/>
<path d="M101.226 66.0729C101.226 66.0729 101.536 67.6312 101.226 68.2546C98.1206 73.5529 86.3212 81.3445 84.4581 89.1361C81.353 92.8761 80.111 97.551 78.8689 101.603C77.6269 105.654 77.6269 102.538 77.6269 102.849C77.6269 104.408 77.3164 109.706 77.6269 111.264C77.9374 112.823 78.8689 112.199 78.8689 112.511C79.49 114.381 80.732 118.121 81.6635 119.368C83.8371 122.796 87.8737 125.913 90.0473 129.653C83.5266 130.899 79.1794 125.913 72.6587 125.601C65.8275 121.238 60.8593 115.004 56.8227 108.148C55.5806 102.226 54.3386 92.2528 55.5806 86.0195C56.8227 79.7862 56.8227 85.0845 56.8227 84.7728C56.8227 83.8378 56.8227 82.9028 56.8227 81.9678C56.8227 81.0328 60.2383 79.1628 60.8593 77.9162C61.4803 76.6695 61.7908 74.1762 62.1014 73.8645C66.759 67.0079 77.6269 61.3979 81.6635 55.788C85.7002 50.178 93.4629 43.0097 98.4311 34.9064C103.399 26.8032 100.915 31.4781 101.226 30.8548C101.536 29.6081 101.226 28.0498 101.226 26.8032C101.226 25.5565 102.468 25.8682 102.468 25.5565C102.468 24.3098 102.468 21.1932 102.468 19.9465C102.468 18.6999 99.9837 16.5182 99.6731 15.8949C99.3626 15.2716 99.6731 14.0249 99.6731 13.0899C99.6731 12.1549 97.1891 9.03827 96.8785 9.03827C94.084 5.60996 88.8053 4.98664 88.4948 0L108.678 8.41495C111.162 11.5316 115.199 14.3366 117.683 17.4532C120.167 20.5699 121.719 23.9982 121.719 24.3099C122.34 26.8032 121.409 30.2315 121.719 32.7248C122.03 35.2181 123.893 34.2831 122.961 36.7764C121.719 38.9581 119.856 41.4514 118.925 43.6331C116.441 48.9314 108.057 63.5796 103.089 66.6962C98.1206 69.8129 101.226 66.6962 100.915 66.6962L101.226 66.0729Z" fill="white"/>
<path d="M124.825 124.666L111.783 119.056C110.541 117.498 108.057 115.94 106.815 114.07C105.573 112.2 106.815 113.135 106.815 112.823C106.194 111.888 104.331 110.641 104.02 110.018C103.71 108.46 104.02 106.278 104.02 104.408C104.02 102.538 102.778 103.473 102.778 103.161C102.778 101.915 102.778 98.7981 102.778 97.5514C102.778 96.3048 105.262 94.4348 105.573 93.4998C105.883 92.5648 105.573 91.6298 105.573 90.6948C105.573 89.7598 107.746 88.8248 108.368 87.8898C115.199 75.4232 126.377 69.8133 134.761 58.5933C143.145 47.3734 136.934 54.23 137.556 52.9834C138.177 51.7367 140.35 49.2434 140.35 48.9317C140.35 47.6851 140.35 42.0751 140.35 40.5168C140.35 38.9585 137.556 36.7768 137.556 36.4652C137.556 35.5302 136.934 31.7902 138.177 31.4785C140.971 34.2835 145.008 35.8418 147.181 39.2701C149.355 42.6984 148.113 42.6984 148.423 43.3218C148.734 43.9451 150.907 45.5034 151.218 46.1268C151.528 47.3734 151.218 48.9317 151.218 50.1784C151.218 51.4251 152.46 51.1134 152.46 51.4251C152.771 54.23 152.771 61.0867 152.46 63.8916C152.15 66.6966 151.218 64.8266 151.218 65.1383C150.597 67.6316 150.597 70.7483 149.976 73.5532C143.766 80.7215 135.382 87.2665 129.172 94.4348C122.962 101.603 129.172 95.6814 129.172 95.6814C127.309 98.1748 122.962 101.291 122.34 104.096C121.719 106.901 123.583 109.395 121.098 110.953L125.135 124.043L124.825 124.666Z" fill="white"/>
</svg>
