<svg width="608" height="102" viewBox="0 0 608 102" fill="none" xmlns="http://www.w3.org/2000/svg">
<g clip-path="url(#clip0_410_120)">
<path d="M603.698 21.6233C600.959 19.2622 597.654 18.0659 593.859 18.0659H568.88C565.102 18.0659 561.78 19.2622 559.043 21.6233C556.242 24.062 554.808 27.038 554.808 30.4694V88.7404C554.808 92.1865 556.225 95.1625 559.043 97.5865C561.78 99.9476 565.086 101.144 568.88 101.144H593.859C597.637 101.144 600.944 99.9476 603.698 97.5865C606.5 95.1457 607.933 92.1718 607.933 88.7404V30.4694C607.933 27.0212 606.516 24.0473 603.698 21.6233ZM574.878 81.972V37.2524C574.878 36.4507 575.554 35.8043 576.419 35.8043H586.32C587.185 35.8043 587.863 36.4507 587.863 37.2524V81.972C587.863 82.7737 587.185 83.4202 586.32 83.4202H576.419C575.554 83.4202 574.878 82.7737 574.878 81.972Z" fill="white"/>
<path d="M550.132 18.0659H532.929C532.173 18.0659 531.527 18.5528 531.401 19.2622C529.388 30.2952 526.836 52.7725 524.381 71.9443C524.209 73.3148 522.777 73.3148 522.557 71.9443L514.922 19.0733C514.827 18.5066 514.277 18.0659 513.662 18.0659H491.832C491.076 18.0659 490.415 18.6011 490.304 19.3084L482.732 72.213C482.528 73.1889 481.128 73.3463 480.971 72.0871C478.767 53.7799 475.822 29.9174 473.887 19.2769C473.745 18.6011 473.115 18.0806 472.36 18.0806H455.156C454.195 18.0806 453.471 18.8991 453.628 19.7806L468.299 99.9476C468.439 100.623 469.069 101.144 469.824 101.144H492.539C493.294 101.144 493.939 100.64 494.065 99.9308L502.378 47.1542C502.392 47.1059 502.424 47.1059 502.439 47.1542L511.253 99.9308C511.364 100.623 512.025 101.144 512.781 101.144H535.493C536.234 101.144 536.895 100.64 537.038 99.9308L551.66 19.7659C551.803 18.8676 551.076 18.0659 550.132 18.0659Z" fill="white"/>
<path d="M446.151 18.0806H429.168C428.318 18.0806 427.625 18.727 427.625 19.5287V100.183C427.625 100.718 428.083 101.144 428.65 101.144H446.718C447.27 101.144 447.696 100.735 447.696 100.231V19.5287C447.696 18.727 447.003 18.0806 446.151 18.0806Z" fill="white"/>
<path d="M417.096 21.6379C414.355 19.2768 411.05 18.0806 407.257 18.0806H369.747C368.899 18.0806 368.207 18.727 368.207 19.5287V100.231C368.207 100.735 368.645 101.144 369.18 101.144H387.252C387.819 101.144 388.275 100.718 388.275 100.199C388.275 96.1069 388.275 79.9257 388.26 74.0388C388.26 73.235 388.936 72.5907 389.8 72.5907C391.06 72.5907 394.76 72.5907 394.76 72.5907C402.078 72.5907 408.311 70.7165 413.254 67.0186C418.622 63.0205 421.329 57.6835 421.329 51.1522V30.484C421.329 27.0379 419.913 24.0619 417.096 21.6379ZM388.289 37.2377C388.289 36.4339 388.967 35.7896 389.834 35.7896H399.734C400.584 35.7896 401.276 36.4339 401.276 37.2377V51.1208C401.276 52.8522 400.537 54.8355 394.774 54.8355H389.8C388.967 54.8355 388.275 54.1891 388.275 53.4021C388.275 49.3893 388.275 41.2987 388.289 37.2377Z" fill="white"/>
<path d="M330.287 19.4825C330.178 18.9473 329.672 18.5527 329.076 18.5527H305.967C305.369 18.5527 304.865 18.9473 304.756 19.4825L288.039 100.231C287.882 100.955 288.48 101.616 289.253 101.616H307.054C307.652 101.616 308.156 101.221 308.265 100.686L311.304 86.2995C311.413 85.7643 311.919 85.3719 312.515 85.3719H322.465C323.061 85.3719 323.567 85.7643 323.676 86.2995L326.635 100.686C326.744 101.221 327.248 101.616 327.846 101.616H345.727C346.499 101.616 347.098 100.955 346.94 100.231L330.287 19.4825ZM315.224 66.3407L317.317 40.858C317.365 40.4004 317.474 40.5578 317.522 40.8412L319.755 66.3574C319.835 67.0332 319.254 67.6314 318.53 67.6314H316.45C315.711 67.6314 315.144 67.0185 315.224 66.3407Z" fill="white"/>
<path d="M280.341 21.6233C277.605 19.2622 274.299 18.0659 270.505 18.0659H245.526C241.748 18.0659 238.426 19.2622 235.687 21.6233C232.885 24.062 231.452 27.038 231.452 30.4694V88.7404C231.452 92.1865 232.868 95.1625 235.687 97.5865C238.426 99.9476 241.731 101.144 245.526 101.144H270.505C274.299 101.144 277.605 99.9476 280.341 97.6012C283.143 95.1625 284.577 92.1865 284.577 88.7551V55.4652C284.577 55.1336 284.277 54.867 283.932 54.867H257.094C256.731 54.867 256.45 55.1336 256.45 55.4652V71.9758C256.45 72.3074 256.748 72.5739 257.094 72.5739H263.848C264.209 72.5739 264.492 72.8426 264.492 73.1721V82.8052C264.492 83.1368 264.192 83.4034 263.848 83.4034H252.137C251.774 83.4034 251.49 83.1368 251.49 82.8052V36.3878C251.49 36.0562 251.79 35.7896 252.137 35.7896H263.848C264.209 35.7896 264.492 36.0562 264.492 36.3878V47.4061C264.492 47.7356 264.792 48.0042 265.136 48.0042H283.932C284.293 48.0042 284.577 47.7356 284.577 47.4061V30.4694C284.577 27.0212 283.16 24.0473 280.341 21.6233Z" fill="white"/>
<path d="M211.698 19.0103C211.589 18.4751 211.083 18.0806 210.487 18.0806H187.378C186.782 18.0806 186.277 18.4751 186.167 19.0103L169.451 99.7587C169.294 100.483 169.892 101.144 170.664 101.144H188.48C189.08 101.144 189.582 100.749 189.693 100.214L192.73 85.8273C192.841 85.2922 193.345 84.8997 193.943 84.8997H203.891C204.489 84.8997 204.993 85.2922 205.102 85.8273L208.063 100.214C208.173 100.749 208.676 101.144 209.274 101.144H227.155C227.926 101.144 228.494 100.483 228.352 99.7587L211.698 19.0103ZM196.636 65.8853L198.728 40.4005C198.774 39.9451 198.886 40.1025 198.934 40.3858L201.167 65.9C201.247 66.5779 200.663 67.176 199.941 67.176H197.861C197.137 67.176 196.571 66.5779 196.636 65.8853Z" fill="white"/>
<path d="M174.645 18.5381H157.442C156.684 18.5381 156.04 19.025 155.914 19.7344C153.899 30.7673 151.35 53.2447 148.894 72.4165C148.72 73.787 147.288 73.787 147.068 72.4165L139.435 19.5455C139.341 18.9788 138.789 18.5381 138.176 18.5381H116.343C115.587 18.5381 114.926 19.0733 114.815 19.7805L107.23 72.6851C107.024 73.661 105.623 73.8185 105.465 72.5592C103.261 54.2521 100.319 30.3896 98.382 19.749C98.2413 19.0733 97.6117 18.5528 96.8562 18.5528H79.6509C78.6917 18.5528 77.9677 19.3713 78.1251 20.2527L92.7952 100.42C92.9358 101.096 93.5654 101.616 94.323 101.616H117.035C117.791 101.616 118.435 101.112 118.563 100.403L126.857 47.6264C126.872 47.5781 126.906 47.5781 126.92 47.6264L135.735 100.403C135.844 101.096 136.507 101.616 137.261 101.616H159.975C160.731 101.616 161.377 101.096 161.549 100.403L176.173 20.2381C176.314 19.3398 175.59 18.5381 174.645 18.5381Z" fill="white"/>
<path d="M80.7862 70.1813C80.5491 62.4538 80.2972 54.4577 79.2416 49.8447C78.7232 47.6893 74.3621 45.0911 71.7806 44.9651C69.5917 44.8434 65.9 45.0932 63.1213 45.282L62.966 36.1253C63.2493 35.9973 63.5284 35.8567 63.8013 35.7098C66.2568 34.3876 68.1142 32.4043 69.0439 30.1377C69.8456 28.1712 70.6179 24.1563 68.429 21.6693C67.2327 20.3324 66.0994 20.0806 65.2326 20.1435C64.9808 19.8917 64.8255 19.749 64.5568 19.4971C64.2252 12.2418 60.5441 7.26788 54.1052 5.39372C51.3517 4.592 48.2497 6.54382 46.172 7.81774C45.9516 7.96045 45.6851 8.11786 45.4626 8.25847C45.1793 8.00663 44.833 7.67713 44.4091 7.23639C43.7018 6.48085 43.1184 5.81976 42.5832 5.22162C40.4425 2.84377 39.2462 1.55305 36.5389 0.656899C31.5334 -0.965414 26.9204 1.82169 25.4744 3.4419C22.9706 6.19753 21.7597 7.70861 21.0356 8.62155C20.9726 8.6992 20.9244 8.74747 20.8782 8.81044C20.6243 8.74747 20.278 8.65303 20.0114 8.55859C18.2968 8.02342 15.4299 7.14195 12.1412 8.32143C6.64886 10.3362 6.758 13.8306 6.85244 16.1602C6.90071 17.6566 6.90071 18.4751 6.17665 19.1676C5.73382 19.5769 5.34136 19.9379 5.02655 20.238C3.37276 21.7638 3.1377 22.0009 2.49339 23.2287C1.05997 25.936 1.45453 27.3359 2.09883 28.8637C2.52278 29.8543 3.01178 31.0044 2.41364 33.9951C2.01908 36.0561 1.42095 37.2208 0.965523 38.1506C0.319116 39.4098 -0.3105 40.6837 0.476521 42.7153C1.97291 46.5245 4.98038 49.278 6.85244 49.4669C6.94688 49.4837 7.02663 49.4837 7.12108 49.4837C7.89131 49.4837 8.55241 49.1206 8.99314 48.491C9.78016 47.2632 9.03931 46.0838 8.61537 45.4373C8.2376 44.8707 7.9081 44.3355 7.9081 43.6115C7.92279 42.8097 8.34673 42.3522 9.68572 41.1413C9.85361 40.986 10.032 40.8244 10.2167 40.6523L10.6931 88.7403C10.6931 92.1864 12.1097 95.1624 14.9262 97.5864C17.6672 99.9475 20.9726 101.144 24.765 101.144H49.744C53.5385 101.144 56.844 99.9475 59.6143 97.5864C60.3594 96.9358 61.01 96.2474 61.5598 95.5234C61.6774 95.5653 61.8054 95.58 61.9271 95.5548C63.1864 95.2253 64.3365 94.9882 65.5474 94.7678C67.6881 94.3586 70.1289 93.8864 73.6401 92.7216C76.9288 91.6365 81.7139 86.3477 81.3214 81.5459C81.0528 78.4922 80.9101 74.4627 80.7862 70.1813ZM63.2808 54.783C63.6208 54.7557 63.9902 54.7221 64.3679 54.678C65.942 54.5206 67.9085 54.3317 69.0271 54.3947C69.2957 54.4262 69.9715 55.5112 70.0828 56.4242C70.7418 61.9816 70.853 72.3703 70.853 78.0515C70.8173 82.6015 68.4353 84.3938 63.7824 84.6751L63.2808 54.783ZM43.45 32.3434L43.7165 82.8366C43.7165 83.1682 43.4185 83.4347 43.0722 83.4347H31.3613C30.9982 83.4347 30.7149 83.1682 30.7149 82.8366L30.3707 38.117C30.9521 37.9953 31.5166 37.8274 32.0539 37.6154C33.5314 37.0173 34.3184 36.3394 35.074 35.6468C35.7686 35.034 36.4276 34.4505 37.8611 33.758C38.1423 33.6173 40.7216 32.4442 43.45 32.3434Z" fill="white"/>
</g>
<defs>
<clipPath id="clip0_410_120">
<rect width="608" height="101.771" fill="white"/>
</clipPath>
</defs>
</svg>
