<?xml version="1.0" encoding="UTF-8"?>
<svg xmlns="http://www.w3.org/2000/svg" width="1920" height="1441" viewBox="0 0 1920 1441" fill="none">
  <path d="M480 480.864C546.27 480.864 600 534.589 600 600.852C600 667.116 546.27 720.864 480 720.864L480 480.887L480 480.864Z" fill="#1D2142"></path>
  <path d="M720 480.864C653.73 480.864 600 534.589 600 600.852C600 667.116 653.73 720.864 720 720.864L720 480.864Z" fill="#B71C51"></path>
  <path d="M600 600.853C600 534.589 546.27 480.864 480 480.864L480 600.853L600 600.853Z" fill="#F2F2F2"></path>
  <path d="M720 600.852L600 600.852C600 667.139 653.73 720.864 720 720.864L720 600.852Z" fill="#E8345B"></path>
  <path d="M1920 480.864H1680V720.864C1792.4 720.864 1886.77 643.564 1912.84 539.216C1917.53 520.543 1920 501.001 1920 480.864Z" fill="#BD3D19"></path>
  <path d="M1800 480.864H1680V600.864C1746.27 600.864 1800 547.134 1800 480.864Z" fill="#004147"></path>
  <path d="M240 960.868H0V1200.87C112.403 1200.87 206.773 1123.57 232.838 1019.22C237.529 1000.55 240 981.005 240 960.868Z" fill="#BD3D19"></path>
  <path d="M120 960.868H0V1080.87C66.27 1080.87 120 1027.14 120 960.868Z" fill="#004147"></path>
  <path d="M1200 720.864H960V480.864H1200V720.864Z" fill="#B71C51"></path>
  <path d="M1200 720.864C1200 654.594 1146.27 600.864 1080 600.864C1013.73 600.864 960 654.594 960 720.864H1200Z" fill="#E8345B"></path>
  <path d="M1200 480.864C1200 547.134 1146.27 600.864 1080 600.864C1013.73 600.864 960 547.134 960 480.864H1200Z" fill="#1D2142"></path>
  <path d="M240 720.867H0V480.867H240V720.867Z" fill="#FBB81F"></path>
  <path d="M240 600.867C240 667.137 186.27 720.867 120 720.867C53.73 720.867 0 667.137 0 600.867H240Z" fill="#B71C51"></path>
  <path d="M240 600.867C240 534.597 186.27 480.867 120 480.867C53.73 480.867 0 534.597 0 600.867H240Z" fill="#E8345B"></path>
  <path d="M120 720.867C53.73 720.867 0 667.137 0 600.867H120V720.867Z" fill="#1D2141"></path>
  <path d="M1440 720.864H1200V480.864H1440V720.864Z" fill="#1D2142"></path>
  <path d="M1200 480.864C1200 613.404 1307.46 720.864 1440 720.864V480.864H1200Z" fill="#651126"></path>
  <path d="M1440 600.864C1373.73 600.864 1320 547.134 1320 480.864H1440V600.864Z" fill="#B71C51"></path>
  <path d="M480.001 960.864H240V720.864H480.001V960.864Z" fill="#1D2142"></path>
  <path d="M240 720.864C240 853.404 347.46 960.864 480.001 960.864V720.864H240Z" fill="#651126"></path>
  <path d="M480.001 840.864C413.73 840.864 360 787.134 360 720.864H480.001V840.864Z" fill="#B71C51"></path>
  <path d="M240 720.867C240 588.327 347.46 480.867 480 480.867V720.867H240Z" fill="#BD3D19"></path>
  <path d="M480 600.867C413.73 600.867 360.001 654.597 360.001 720.867H480V600.867Z" fill="#F6B2B7"></path>
  <path d="M1440 960.864H1200V720.864H1440V960.864Z" fill="#B71C51"></path>
  <path d="M1319.99 840.861L1200 960.864H1320V840.861V840.849V720.864L1200 840.861H1319.99Z" fill="#F6B2B6"></path>
  <path d="M1440 960.864V1200.86H1680C1680 1068.32 1572.55 960.864 1440 960.864Z" fill="#A5D8DC"></path>
  <path d="M1440 1080.86V1200.86H1559.99C1559.99 1134.59 1506.29 1080.86 1440 1080.86Z" fill="#B71C51"></path>
  <path d="M1440 720.864H1680V960.864H1440V720.864Z" fill="#A5D8DC"></path>
  <path d="M1680 720.864C1680 853.427 1572.55 960.864 1440 960.864V720.864H1680Z" fill="#02B1B2"></path>
  <path d="M1440 840.864C1506.26 840.864 1559.99 787.134 1559.99 720.864H1440V840.864Z" fill="#A6D7DC"></path>
  <path d="M1320 1195.58L1320 1200.86L1440 1200.86L1440 1195.58L1320 1195.58Z" fill="#B71C51"></path>
  <path d="M1320 1179.11L1320 1184.36L1440 1184.36L1440 1179.11L1320 1179.11Z" fill="#B71C51"></path>
  <path d="M1320 1162.61L1320 1167.86L1440 1167.86L1440 1162.61L1320 1162.61Z" fill="#B71C51"></path>
  <path d="M1320 1146.11L1320 1151.36L1440 1151.36L1440 1146.11L1320 1146.11Z" fill="#B71C51"></path>
  <path d="M1320 1130.36L1320 1135.61L1440 1135.61L1440 1130.36L1320 1130.36Z" fill="#B71C51"></path>
  <path d="M1320 1113.86L1320 1119.11L1440 1119.11L1440 1113.86L1320 1113.86Z" fill="#B71C51"></path>
  <path d="M1320 1097.36L1320 1102.61L1440 1102.61L1440 1097.36L1320 1097.36Z" fill="#B71C51"></path>
  <path d="M1320 1080.86L1320 1086.11L1440 1086.11L1440 1080.86L1320 1080.86Z" fill="#B71C51"></path>
  <path d="M1440 960.864C1440 1093.43 1332.55 1200.86 1200 1200.86V960.864H1440Z" fill="#02B1B2"></path>
  <path d="M1200 1080.86C1266.1 1080.86 1319.68 1027.13 1319.68 960.864H1200V1080.86Z" fill="#A6D7DC"></path>
  <path d="M245.283 1080.87L240 1080.87L240 1200.87L245.283 1200.87L245.283 1080.87Z" fill="#B71C51"></path>
  <path d="M261.75 1080.87L256.5 1080.87L256.5 1200.87L261.75 1200.87L261.75 1080.87Z" fill="#B71C51"></path>
  <path d="M278.25 1080.87L273 1080.87L273 1200.87L278.25 1200.87L278.25 1080.87Z" fill="#B71C51"></path>
  <path d="M294.75 1080.87L289.5 1080.87L289.5 1200.87L294.75 1200.87L294.75 1080.87Z" fill="#B71C51"></path>
  <path d="M310.5 1080.87L305.25 1080.87L305.25 1200.87L310.5 1200.87L310.5 1080.87Z" fill="#B71C51"></path>
  <path d="M327 1080.87L321.75 1080.87L321.75 1200.87L327 1200.87L327 1080.87Z" fill="#B71C51"></path>
  <path d="M343.5 1080.87L338.25 1080.87L338.25 1200.87L343.5 1200.87L343.5 1080.87Z" fill="#B71C51"></path>
  <path d="M360 1080.87L354.75 1080.87L354.75 1200.87L360 1200.87L360 1080.87Z" fill="#B71C51"></path>
  <path d="M480 1200.87C347.437 1200.87 240 1093.42 240 960.867L480 960.867L480 1200.87Z" fill="#02B1B2"></path>
  <path d="M360 960.868C360 1026.96 413.73 1080.55 480 1080.55L480 960.868L360 960.868Z" fill="#A6D7DC"></path>
  <path d="M240 1440.51C240 1374.24 293.725 1320.51 359.988 1320.51C426.252 1320.51 480 1374.24 480 1440.51H240.023H240Z" fill="#004147"></path>
  <path d="M240 1200.86C240 1267.13 293.725 1320.86 359.988 1320.86C426.252 1320.86 480 1267.13 480 1200.86H240Z" fill="#B71C51"></path>
  <path d="M360.249 1320.86C293.979 1320.86 240.249 1374.59 240.249 1440.86H360.249V1320.86Z" fill="#A6D7DC"></path>
  <path d="M360 1200.86V1320.86C426.28 1320.86 480 1267.13 480 1200.86H360Z" fill="#E8345B"></path>
  <path d="M1920 960.864C1853.73 960.864 1800 907.139 1800 840.876C1800 774.612 1853.73 720.864 1920 720.864L1920 960.841L1920 960.864Z" fill="#1D2142"></path>
  <path d="M1680 960.864C1746.27 960.864 1800 907.139 1800 840.876C1800 774.612 1746.27 720.864 1680 720.864L1680 960.864Z" fill="#B71C51"></path>
  <path d="M1800 840.875C1800 907.139 1853.73 960.864 1920 960.864L1920 840.875L1800 840.875Z" fill="#F2F2F2"></path>
  <path d="M1680 840.876L1800 840.876C1800 774.589 1746.27 720.864 1680 720.864L1680 840.876Z" fill="#E8345B"></path>
  <rect y="720.869" width="240" height="240" fill="#651126"></rect>
  <path d="M240 960.867C173.73 960.867 120 907.142 120 840.879C120 774.615 173.73 720.867 240 720.867L240 960.844L240 960.867Z" fill="#1D2142"></path>
  <path d="M1.04918e-05 960.867C66.2701 960.867 120 907.142 120 840.879C120 774.615 66.2701 720.867 0 720.867L1.04918e-05 960.867Z" fill="#B71C51"></path>
  <path d="M120 840.878C120 907.142 173.73 960.867 240 960.867L240 840.878L120 840.878Z" fill="#F2F2F2"></path>
  <path d="M5.24641e-06 840.879L120 840.879C120 774.592 66.2701 720.867 0 720.867L5.24641e-06 840.879Z" fill="#E8345B"></path>
  <path d="M1680 960.864H1920V1200.86H1680V960.864Z" fill="#1D2142"></path>
  <path d="M1680 1200.86H1920V960.864C1807.6 960.864 1713.23 1038.16 1687.16 1142.51C1682.47 1161.18 1680 1180.73 1680 1200.86Z" fill="#BD3D19"></path>
  <path d="M1800 1200.86H1920V1080.86C1853.73 1080.86 1800 1134.59 1800 1200.86Z" fill="#FBB81F"></path>
  <path d="M1439.25 1440.5L1439.25 1200.5L1679.25 1200.5L1679.25 1440.5L1439.25 1440.5Z" fill="#02B1B2"></path>
  <path d="M1679.25 1200.5C1546.71 1200.5 1439.25 1307.93 1439.25 1440.5L1679.25 1440.5L1679.25 1200.5Z" fill="#FBB81E"></path>
  <path d="M1559.25 1440.5C1559.25 1374.23 1612.98 1320.5 1679.25 1320.5L1679.25 1440.5L1559.25 1440.5Z" fill="#004147"></path>
  <path d="M960 720.864H1200V960.864H960V720.864Z" fill="#02B1B2"></path>
  <path d="M1200 960.864C1200 828.324 1092.56 720.864 960 720.864V960.864H1200Z" fill="#E6355A"></path>
  <path d="M960.003 840.864C1026.27 840.864 1080 894.594 1080 960.864H960.003V840.864Z" fill="#004147"></path>
  <path d="M960 960.864H1200V1200.6H960V960.864Z" fill="#1D2142"></path>
  <path d="M959.25 1080.86C959.25 1014.59 1013.15 960.864 1079.63 960.864C1146.1 960.864 1200 1014.59 1200 1080.86H959.25Z" fill="#E8345B"></path>
  <path d="M959.25 1080.86C959.25 1147.13 1013.15 1200.86 1079.63 1200.86C1146.1 1200.86 1200 1147.13 1200 1080.86H959.25Z" fill="#FBB81E"></path>
  <path d="M1080 960.864C1146.27 960.864 1200 1014.59 1200 1080.86H1080V960.864Z" fill="#BD3D19"></path>
  <path d="M480.139 1200.5H720.139V1440.5H480.139V1200.5Z" fill="#F6B2B7"></path>
  <path d="M480.139 1440.5C480.139 1307.96 587.599 1200.5 720.139 1200.5V1440.5H480.139Z" fill="#BD3D19"></path>
  <path d="M720.139 1320.5C653.869 1320.5 600.139 1374.23 600.139 1440.5H720.139V1320.5Z" fill="#F6B2B7"></path>
  <path d="M720 720.865H960V960.863H720V720.865Z" fill="#F6B2B7"></path>
  <path d="M720 721.014V961.014L960 721.014H720Z" fill="#B71C51"></path>
  <path d="M720 720.864V840.864L840 720.864H720Z" fill="#E6355A"></path>
  <path d="M1680 720.864H1440V480.864H1680V720.864Z" fill="#F6B2B7"></path>
  <path d="M1680 480.864C1680 613.404 1572.54 720.864 1440 720.864V480.864H1680Z" fill="#B71C51"></path>
  <path d="M1440 600.864C1506.27 600.864 1560 547.134 1560 480.864H1440V600.864Z" fill="#E7355A"></path>
  <path d="M1619 658.864V598.864L1558 658.864H1619Z" fill="#E6355A"></path>
  <path d="M1558 598.862L1499 658.864H1558V598.862V598.856V538.864L1499 598.862H1558Z" fill="#F6B2B6"></path>
  <path d="M480 960.864H720V1200.86H480V960.864Z" fill="#FBB81F"></path>
  <path d="M720 960.864C720 1093.43 612.55 1200.86 480 1200.86V960.864H720Z" fill="#A5D8DC"></path>
  <path d="M480 1080.86C546.27 1080.86 600 1027.13 600 960.864H480V1080.86Z" fill="#03B1B2"></path>
  <path d="M655.07 1122.9L615.671 1165.14H655.072V1122.9V1122.9V1080.66L615.671 1122.9H655.07Z" fill="#E6355A"></path>
  <path d="M480 960.864H720V720.864C607.597 720.864 513.227 798.164 487.162 902.511C482.471 921.184 480 940.726 480 960.864Z" fill="#BD3D19"></path>
  <path d="M600 960.864H720V840.864C653.73 840.864 600 894.594 600 960.864Z" fill="#004147"></path>
  <path d="M550.739 900.453C556.502 900.453 561.783 897.755 565.891 893.27H535.589C539.697 897.753 544.976 900.453 550.741 900.453" fill="#A5D8DC"></path>
  <path d="M610.584 900.453C616.346 900.453 621.627 897.755 625.731 893.27H595.432C599.54 897.753 604.819 900.453 610.584 900.453Z" fill="#A5D8DC"></path>
  <path d="M670.43 900.453C676.192 900.453 681.473 897.755 685.581 893.27H655.282C659.386 897.753 664.667 900.453 670.43 900.453Z" fill="#A5D8DC"></path>
  <path d="M579.465 879.083C585.228 879.083 590.509 876.385 594.617 871.9H564.315C568.423 876.383 573.702 879.083 579.467 879.083" fill="#A5D8DC"></path>
  <path d="M639.309 879.083C645.072 879.083 650.353 876.385 654.457 871.9H624.157C628.265 876.383 633.544 879.083 639.309 879.083Z" fill="#A5D8DC"></path>
  <path d="M720 961.011H960V1201.01H720V961.011Z" fill="#B71C51"></path>
  <path d="M720 961.011C720 1093.55 827.46 1201.01 960 1201.01V961.011H720Z" fill="#FBB81E"></path>
  <path d="M845.366 960.864H840.088V1078.97H845.366V960.864Z" fill="#E6355A"></path>
  <path d="M861.755 960.864H856.477V1080.86H861.755V960.864Z" fill="#E6355A"></path>
  <path d="M878.142 960.864H872.864V1080.86H878.142V960.864Z" fill="#E6355A"></path>
  <path d="M894.527 960.864H889.249V1080.86H894.527V960.864Z" fill="#E6355A"></path>
  <path d="M910.916 960.864H905.637V1080.86H910.916V960.864Z" fill="#E6355A"></path>
  <path d="M927.312 960.864H922.033V1080.86H927.312V960.864Z" fill="#E6355A"></path>
  <path d="M943.699 960.864H938.42V1080.86H943.699V960.864Z" fill="#E6355A"></path>
  <path d="M960.088 960.864H954.809V1080.86H960.088V960.864Z" fill="#E6355A"></path>
  <path d="M960 720.864H720V480.864H960V720.864Z" fill="#A5D8DC"></path>
  <path d="M720 720.864C720 588.301 827.45 480.864 960 480.864V720.864H720Z" fill="#02B1B2"></path>
  <path d="M960.011 600.864C893.741 600.864 840.011 654.594 840.011 720.864H960.011V600.864Z" fill="#A6D7DC"></path>
  <path d="M725.278 480.864H720V598.973H725.278V480.864Z" fill="#03B1B2"></path>
  <path d="M741.667 480.864H736.389V600.864H741.667V480.864Z" fill="#03B1B2"></path>
  <path d="M758.056 480.864H752.777V600.864H758.056V480.864Z" fill="#03B1B2"></path>
  <path d="M774.439 480.864H769.161V600.864H774.439V480.864Z" fill="#03B1B2"></path>
  <path d="M790.828 480.864H785.549V600.864H790.828V480.864Z" fill="#03B1B2"></path>
  <path d="M807.224 480.864H801.945V600.864H807.224V480.864Z" fill="#03B1B2"></path>
  <path d="M823.612 480.864H818.333V600.864H823.612V480.864Z" fill="#03B1B2"></path>
  <path d="M840 480.864H834.721V600.864H840V480.864Z" fill="#03B1B2"></path>
  <rect width="957" height="191.241" transform="translate(484.097 609.541)" fill="#1D2141"></rect>
  <path d="M559.26 741.335V672.201C559.706 672.201 560.838 672.201 562.655 672.201C564.503 672.201 566.639 672.201 569.061 672.201C571.516 672.17 573.922 672.17 576.281 672.201C578.639 672.201 580.568 672.233 582.066 672.297C590.416 672.552 597.221 674.13 602.481 677.03C607.772 679.899 611.644 683.851 614.098 688.887C616.585 693.891 617.828 699.756 617.828 706.481C617.828 713.43 616.521 719.518 613.907 724.745C611.325 729.972 607.373 734.052 602.05 736.984C596.727 739.885 589.954 741.335 581.731 741.335H559.26ZM575.611 728.378H582.209C585.365 728.378 588.361 727.661 591.197 726.227C594.034 724.793 596.345 722.466 598.13 719.247C599.947 716.027 600.855 711.709 600.855 706.29C600.855 701.477 600.09 697.509 598.56 694.385C597.03 691.262 594.879 688.951 592.106 687.453C589.333 685.923 586.066 685.158 582.305 685.158H575.611V728.378ZM631.356 741.335V733.685L665.157 685.684H634.033V672.201H688.537V679.516L654.113 727.661H688.011V741.335H631.356ZM707.763 741.335V672.201H724.066V741.335H707.763ZM746.81 741.335V672.201H763.735V701.987L786.349 672.201H804.756L784.82 698.784L807.625 741.335H789.983L773.154 710.641L763.735 722.354V741.335H746.81ZM825.451 741.335V672.201H841.754V741.335H825.451ZM907.776 741.335L887.17 672.201H902.995L914.804 713.557L926.374 672.201H937.944L949.801 713.557L961.371 672.201H977.196L956.638 741.335H944.112L932.159 699.931L920.111 741.335H907.776ZM1019.01 742.291C1015.5 742.291 1012.06 741.861 1008.68 741C1005.3 740.108 1002.19 738.785 999.356 737.032C996.551 735.247 994.24 733.016 992.423 730.339C990.606 727.661 989.539 724.522 989.22 720.92H1005.86C1006.27 722.801 1007.08 724.394 1008.3 725.701C1009.51 726.976 1011.1 727.964 1013.08 728.665C1015.05 729.335 1017.35 729.669 1019.96 729.669C1021.81 729.669 1023.61 729.43 1025.36 728.952C1027.12 728.442 1028.57 727.645 1029.72 726.562C1030.86 725.478 1031.44 724.044 1031.44 722.259C1031.44 720.091 1030.59 718.53 1028.9 717.573C1027.21 716.585 1025.06 715.82 1022.45 715.278L1010.07 712.792C1006.18 712.027 1002.81 710.816 999.977 709.159C997.172 707.501 995.005 705.318 993.475 702.609C991.977 699.899 991.228 696.632 991.228 692.808C991.228 688.313 992.471 684.473 994.957 681.285C997.443 678.066 1000.81 675.612 1005.05 673.923C1009.32 672.201 1014.11 671.341 1019.44 671.341C1025.3 671.341 1030.29 672.265 1034.4 674.114C1038.51 675.963 1041.65 678.512 1043.82 681.764C1045.99 684.983 1047.12 688.632 1047.21 692.712H1030.96C1030.77 690.64 1030.15 688.983 1029.09 687.74C1028.04 686.465 1026.66 685.525 1024.93 684.919C1023.21 684.313 1021.22 684.011 1018.96 684.011C1015.16 684.011 1012.44 684.744 1010.78 686.21C1009.12 687.676 1008.3 689.302 1008.3 691.086C1008.3 692.871 1008.95 694.338 1010.26 695.485C1011.56 696.632 1013.73 697.493 1016.76 698.067L1027.9 700.218C1032.55 701.015 1036.33 702.37 1039.23 704.282C1042.16 706.163 1044.31 708.489 1045.68 711.262C1047.09 714.003 1047.79 717.111 1047.79 720.585C1047.79 724.92 1046.53 728.713 1044.01 731.964C1041.52 735.215 1038.13 737.749 1033.83 739.566C1029.52 741.383 1024.58 742.291 1019.01 742.291ZM1096.81 742.291C1090.25 742.291 1084.56 740.761 1079.75 737.701C1074.93 734.61 1071.2 730.339 1068.56 724.888C1065.91 719.438 1064.59 713.143 1064.59 706.003C1064.59 698.895 1065.9 692.744 1068.51 687.549C1071.12 682.353 1074.84 678.337 1079.65 675.5C1084.49 672.664 1090.22 671.245 1096.81 671.245C1102.17 671.245 1106.93 672.313 1111.11 674.449C1115.32 676.552 1118.71 679.469 1121.29 683.198C1123.87 686.895 1125.42 691.118 1125.93 695.867H1108.86C1108.48 693.573 1107.75 691.581 1106.66 689.891C1105.61 688.17 1104.21 686.831 1102.46 685.875C1100.73 684.919 1098.68 684.441 1096.29 684.441C1093.51 684.441 1091.09 685.142 1089.02 686.545C1086.95 687.915 1085.34 690.21 1084.19 693.429C1083.08 696.617 1082.52 700.888 1082.52 706.242C1082.52 714.402 1083.76 720.251 1086.25 723.789C1088.77 727.327 1092.11 729.096 1096.29 729.096C1098.68 729.096 1100.73 728.522 1102.46 727.374C1104.21 726.227 1105.61 724.697 1106.66 722.785C1107.75 720.84 1108.48 718.737 1108.86 716.474H1125.93C1125.48 719.884 1124.67 723.151 1123.49 726.275C1122.34 729.366 1120.67 732.124 1118.47 734.546C1116.27 736.968 1113.4 738.865 1109.87 740.235C1106.36 741.606 1102.01 742.291 1096.81 742.291ZM1145.91 741.335V672.201H1162.21V699.166H1189.27V672.201H1205.53V741.335H1189.27V712.601H1162.21V741.335H1145.91ZM1258.26 742.291C1251.57 742.291 1245.77 740.857 1240.86 737.988C1235.98 735.088 1232.21 730.992 1229.53 725.701C1226.85 720.41 1225.51 714.147 1225.51 706.912C1225.51 699.613 1226.87 693.302 1229.58 687.979C1232.29 682.656 1236.09 678.544 1241 675.644C1245.94 672.711 1251.7 671.245 1258.26 671.245C1264.83 671.245 1270.53 672.711 1275.38 675.644C1280.25 678.544 1284.03 682.656 1286.71 687.979C1289.42 693.302 1290.77 699.613 1290.77 706.912C1290.77 714.147 1289.45 720.41 1286.8 725.701C1284.16 730.992 1280.4 735.088 1275.52 737.988C1270.64 740.857 1264.89 742.291 1258.26 742.291ZM1258.26 729.096C1261.23 729.096 1263.82 728.378 1266.05 726.944C1268.29 725.478 1270.01 723.135 1271.22 719.916C1272.46 716.697 1273.08 712.442 1273.08 707.151C1273.08 701.7 1272.46 697.318 1271.22 694.003C1269.98 690.656 1268.24 688.234 1266.01 686.736C1263.78 685.206 1261.19 684.441 1258.26 684.441C1255.3 684.441 1252.7 685.206 1250.47 686.736C1248.24 688.266 1246.48 690.704 1245.21 694.051C1243.97 697.366 1243.35 701.732 1243.35 707.151C1243.35 712.442 1243.97 716.697 1245.21 719.916C1246.48 723.135 1248.24 725.478 1250.47 726.944C1252.7 728.378 1255.3 729.096 1258.26 729.096ZM1252.33 666.416L1262.18 652.504H1278.53L1263.86 666.416H1252.33ZM1310.85 741.335V672.201C1311.29 672.201 1312.42 672.201 1314.24 672.201C1316.09 672.201 1318.23 672.201 1320.65 672.201C1323.1 672.17 1325.51 672.17 1327.87 672.201C1330.23 672.201 1332.15 672.233 1333.65 672.297C1342 672.552 1348.81 674.13 1354.07 677.03C1359.36 679.899 1363.23 683.851 1365.69 688.887C1368.17 693.891 1369.41 699.756 1369.41 706.481C1369.41 713.43 1368.11 719.518 1365.49 724.745C1362.91 729.972 1358.96 734.052 1353.64 736.984C1348.31 739.885 1341.54 741.335 1333.32 741.335H1310.85ZM1327.2 728.378H1333.8C1336.95 728.378 1339.95 727.661 1342.78 726.227C1345.62 724.793 1347.93 722.466 1349.72 719.247C1351.53 716.027 1352.44 711.709 1352.44 706.29C1352.44 701.477 1351.68 697.509 1350.15 694.385C1348.62 691.262 1346.47 688.951 1343.69 687.453C1340.92 685.923 1337.65 685.158 1333.89 685.158H1327.2V728.378Z" fill="white"></path>
  <path d="M960.001 480.978V240.978H720C720 373.518 827.45 480.978 960.001 480.978Z" fill="#A5D8DC"></path>
  <path d="M960 360.978V240.978H840.012C840.012 307.248 893.714 360.978 960 360.978Z" fill="#B71C51"></path>
  <path d="M960 480.978C960 348.415 1067.45 240.978 1200 240.978V480.978H960Z" fill="#02B1B2"></path>
  <path d="M1199.92 360.978C1133.66 360.978 1079.93 414.708 1079.93 480.978H1199.92V360.978Z" fill="#A6D7DC"></path>
  <path d="M1440 480.978H1200V240.978H1440V480.978Z" fill="#1D2142"></path>
  <path d="M1440 360.978C1440 427.248 1386.27 480.978 1320 480.978C1253.73 480.978 1200 427.248 1200 360.978H1440Z" fill="#E8345B"></path>
  <path d="M1440 360.978C1440 294.708 1386.27 240.978 1320 240.978C1253.73 240.978 1200 294.708 1200 360.978H1440Z" fill="#FBB81E"></path>
  <path d="M1320 480.978C1253.73 480.978 1200 427.248 1200 360.978H1320V480.978Z" fill="#BD3D19"></path>
  <path d="M1680 240.981C1680 108.441 1787.46 0.981445 1920 0.981445V240.981H1680Z" fill="#BD3D19"></path>
  <path d="M1920 120.981C1853.73 120.981 1800 174.711 1800 240.981H1920V120.981Z" fill="#F6B2B7"></path>
  <path d="M1680 480.978H1440V240.978H1680V480.978Z" fill="#B71C51"></path>
  <path d="M1680 480.978C1680 348.438 1572.54 240.978 1440 240.978V480.978H1680Z" fill="#FBB81E"></path>
  <path d="M480 240.979L480 480.979L240 480.98L240 240.979L480 240.979Z" fill="#E8345B"></path>
  <path d="M359.997 360.986L480 480.979L480 360.979L359.997 360.979L359.985 360.979L240 360.979L359.997 480.979L359.997 360.986Z" fill="#FBB81F"></path>
  <path d="M-1.52588e-05 240.981V480.981H240C240 348.441 132.55 240.981 -1.52588e-05 240.981Z" fill="#A5D8DC"></path>
  <path d="M0.000198364 360.981V480.981H119.989C119.989 414.711 66.2868 360.981 0.000198364 360.981Z" fill="#B71C51"></path>
  <path d="M1680 480.978L1680 240.978L1919.87 240.978L1919.87 480.978L1680 480.978Z" fill="#A5D8DC"></path>
  <path d="M1680 240.978C1812.49 240.978 1919.87 348.428 1919.87 480.978L1680 480.978L1680 240.978Z" fill="#02B1B2"></path>
  <path d="M1799.94 480.782C1799.94 414.512 1746.23 360.782 1680 360.782L1680 480.782L1799.94 480.782Z" fill="#A6D7DC"></path>
  <path d="M1920 240.978H1916.28C1916.28 305.048 1864.09 357.174 1799.94 357.174V360.886C1866.14 360.886 1920 307.094 1920 240.978Z" fill="#F6B2B6"></path>
  <path d="M1904.45 240.978H1900.73C1900.73 296.482 1855.52 341.637 1799.94 341.637V345.349C1857.56 345.349 1904.45 298.531 1904.45 240.978Z" fill="#F6B2B6"></path>
  <path d="M1888.35 240.978H1884.63C1884.63 287.618 1846.64 325.566 1799.94 325.566V329.278C1848.69 329.278 1888.35 289.667 1888.35 240.978Z" fill="#F6B2B6"></path>
  <path d="M1869.53 240.978H1865.82C1865.82 277.257 1836.26 306.774 1799.94 306.774V310.486C1838.31 310.486 1869.53 279.303 1869.53 240.978Z" fill="#F6B2B6"></path>
  <path d="M1851.37 240.978H1847.66C1847.66 267.255 1826.25 288.635 1799.94 288.635V292.347C1828.3 292.347 1851.37 269.302 1851.37 240.978Z" fill="#F6B2B6"></path>
  <path d="M720.001 480.863H480V240.978H720.001V480.863Z" fill="#1D2142"></path>
  <path d="M720.001 240.978H480V480.863C592.403 480.863 686.774 403.6 712.838 299.302C717.529 280.638 720.001 261.105 720.001 240.978Z" fill="#BD3D19"></path>
  <path d="M600 240.978H480V360.921C546.271 360.921 600 307.217 600 240.978Z" fill="#FBB81F"></path>
  <path d="M720.001 360.978L720.001 364.693C655.882 364.693 603.715 416.858 603.715 480.976L600 480.976C600 414.81 653.834 360.978 720.001 360.978Z" fill="white"></path>
  <path d="M720 376.525L720 380.239C664.454 380.239 619.265 425.428 619.265 480.978L615.55 480.978C615.55 423.382 662.404 376.525 720 376.525Z" fill="white"></path>
  <path d="M720 392.61L720 396.324C673.325 396.324 635.347 434.301 635.347 480.976L631.632 480.976C631.632 432.251 671.274 392.61 720 392.61Z" fill="white"></path>
  <path d="M720.001 411.418L720.001 415.133C683.695 415.133 654.155 444.67 654.155 480.978L650.44 480.978C650.44 442.624 681.646 411.418 720.001 411.418Z" fill="white"></path>
  <path d="M720.001 429.569L720.001 433.283C693.703 433.283 672.308 454.679 672.308 480.976L668.593 480.976C668.593 452.63 691.655 429.569 720.001 429.569Z" fill="white"></path>
  <path d="M480.001 0.978017C546.271 0.978014 600 54.7029 600 120.967C600 187.23 546.271 240.978 480.001 240.978L480.001 1.00091L480.001 0.978017Z" fill="#1D2142"></path>
  <path d="M720 0.978012C653.73 0.978015 600.001 54.7029 600.001 120.967C600.001 187.23 653.73 240.978 720 240.978L720 0.978012Z" fill="#B71C51"></path>
  <path d="M720 120.967L600.001 120.967C600.001 187.253 653.73 240.978 720 240.978L720 120.967Z" fill="#E8345B"></path>
  <path d="M600.107 121.047C600.107 54.7837 546.377 1.05879 480.107 1.0588L480.107 121.047L600.107 121.047Z" fill="#F2F2F2"></path>
</svg>
